%TF.GenerationSoftware,KiCad,Pcbnew,10.0.4*%
%TF.CreationDate,2026-07-08T15:11:50+01:00*%
%TF.ProjectId,Blind_Clock,426c696e-645f-4436-9c6f-636b2e6b6963,rev?*%
%TF.SameCoordinates,Original*%
%TF.FileFunction,Copper,L3,Inr*%
%TF.FilePolarity,Positive*%
%FSLAX46Y46*%
G04 Gerber Fmt 4.6, Leading zero omitted, Abs format (unit mm)*
G04 Created by KiCad (PCBNEW 10.0.4) date 2026-07-08 15:11:50*
%MOMM*%
%LPD*%
G01*
G04 APERTURE LIST*
G04 Aperture macros list*
%AMRoundRect*
0 Rectangle with rounded corners*
0 $1 Rounding radius*
0 $2 $3 $4 $5 $6 $7 $8 $9 X,Y pos of 4 corners*
0 Add a 4 corners polygon primitive as box body*
4,1,4,$2,$3,$4,$5,$6,$7,$8,$9,$2,$3,0*
0 Add four circle primitives for the rounded corners*
1,1,$1+$1,$2,$3*
1,1,$1+$1,$4,$5*
1,1,$1+$1,$6,$7*
1,1,$1+$1,$8,$9*
0 Add four rect primitives between the rounded corners*
20,1,$1+$1,$2,$3,$4,$5,0*
20,1,$1+$1,$4,$5,$6,$7,0*
20,1,$1+$1,$6,$7,$8,$9,0*
20,1,$1+$1,$8,$9,$2,$3,0*%
G04 Aperture macros list end*
%TA.AperFunction,ComponentPad*%
%ADD10C,1.600000*%
%TD*%
%TA.AperFunction,ComponentPad*%
%ADD11R,1.600000X1.600000*%
%TD*%
%TA.AperFunction,ComponentPad*%
%ADD12RoundRect,0.250000X-0.550000X0.550000X-0.550000X-0.550000X0.550000X-0.550000X0.550000X0.550000X0*%
%TD*%
%TA.AperFunction,ComponentPad*%
%ADD13R,2.000000X2.000000*%
%TD*%
%TA.AperFunction,ComponentPad*%
%ADD14O,1.600000X2.000000*%
%TD*%
%TA.AperFunction,ComponentPad*%
%ADD15C,2.200000*%
%TD*%
%TA.AperFunction,ComponentPad*%
%ADD16R,1.700000X1.700000*%
%TD*%
%TA.AperFunction,ComponentPad*%
%ADD17C,1.700000*%
%TD*%
%TA.AperFunction,Conductor*%
%ADD18C,0.200000*%
%TD*%
G04 APERTURE END LIST*
D10*
%TO.N,Buzz*%
%TO.C,BZ1*%
X114400000Y-132000000D03*
D11*
%TO.N,3.3v*%
X122000000Y-132000000D03*
%TD*%
D12*
%TO.N,Row 0*%
%TO.C,D3*%
X105800000Y-114190000D03*
D10*
%TO.N,Net-(D3-A)*%
X105800000Y-121810000D03*
%TD*%
D12*
%TO.N,Row 0*%
%TO.C,D2*%
X102250000Y-114190000D03*
D10*
%TO.N,Net-(D2-A)*%
X102250000Y-121810000D03*
%TD*%
D12*
%TO.N,Row 2*%
%TO.C,D9*%
X127100000Y-114190000D03*
D10*
%TO.N,Net-(D9-A)*%
X127100000Y-121810000D03*
%TD*%
D12*
%TO.N,Row 1*%
%TO.C,D4*%
X109350000Y-114190000D03*
D10*
%TO.N,Net-(D4-A)*%
X109350000Y-121810000D03*
%TD*%
D12*
%TO.N,Row 1*%
%TO.C,D6*%
X116450000Y-114190000D03*
D10*
%TO.N,Net-(D6-A)*%
X116450000Y-121810000D03*
%TD*%
D12*
%TO.N,Row 2*%
%TO.C,D7*%
X120000000Y-114190000D03*
D10*
%TO.N,Net-(D7-A)*%
X120000000Y-121810000D03*
%TD*%
D12*
%TO.N,Row 0*%
%TO.C,D1*%
X98700000Y-114190000D03*
D10*
%TO.N,Net-(D1-A)*%
X98700000Y-121810000D03*
%TD*%
D12*
%TO.N,Row 3*%
%TO.C,D11*%
X134200000Y-114190000D03*
D10*
%TO.N,Net-(D11-A)*%
X134200000Y-121810000D03*
%TD*%
D12*
%TO.N,Row 3*%
%TO.C,D10*%
X130650000Y-114190000D03*
D10*
%TO.N,Net-(D10-A)*%
X130650000Y-121810000D03*
%TD*%
%TO.N,Net-(D12-A)*%
%TO.C,D12*%
X137750000Y-121810000D03*
D12*
%TO.N,Row 3*%
X137750000Y-114190000D03*
%TD*%
D13*
%TO.N,unconnected-(U1-EN-Pad1)*%
%TO.C,U1*%
X110600000Y-61700000D03*
D14*
%TO.N,Row 0*%
X113140000Y-61700000D03*
%TO.N,Col 2*%
X115680000Y-61700000D03*
%TO.N,Col 1*%
X118220000Y-61700000D03*
%TO.N,Col 0*%
X120760000Y-61700000D03*
%TO.N,Row 1*%
X123300000Y-61700000D03*
%TO.N,Row 2*%
X125840000Y-61700000D03*
%TO.N,3.3v*%
X128380000Y-61700000D03*
%TO.N,unconnected-(U1-VBus-Pad9)*%
X128380000Y-84560000D03*
%TO.N,GND*%
X125840000Y-84560000D03*
%TO.N,Row 3*%
X123300000Y-84560000D03*
%TO.N,Buzz*%
X120760000Y-84560000D03*
%TO.N,RST*%
X118220000Y-84560000D03*
%TO.N,DC*%
X115680000Y-84560000D03*
%TO.N,RDA*%
X113140000Y-84560000D03*
%TO.N,SCL*%
X110600000Y-84560000D03*
%TD*%
D15*
%TO.N,Col 2*%
%TO.C,SW12*%
X90260295Y-46870591D03*
%TO.N,Net-(D12-A)*%
X86031034Y-52245296D03*
%TD*%
%TO.N,Col 1*%
%TO.C,SW11*%
X68410591Y-66860886D03*
%TO.N,Net-(D11-A)*%
X67435296Y-73630147D03*
%TD*%
%TO.N,Col 0*%
%TO.C,SW10*%
X59920000Y-96540000D03*
%TO.N,Net-(D10-A)*%
X62460001Y-102890000D03*
%TD*%
%TO.N,Col 2*%
%TO.C,SW8*%
X86659705Y-148129409D03*
%TO.N,Net-(D6-A)*%
X93428966Y-149104704D03*
%TD*%
%TO.N,Col 2*%
%TO.C,SW7*%
X115540000Y-157080000D03*
%TO.N,Net-(D3-A)*%
X121889999Y-154540000D03*
%TD*%
%TO.N,Col 1*%
%TO.C,SW4*%
X174540001Y-102350000D03*
%TO.N,Net-(D2-A)*%
X172000000Y-96000000D03*
%TD*%
%TO.N,Col 0*%
%TO.C,SW3*%
X168209409Y-73059114D03*
%TO.N,Net-(D7-A)*%
X162834704Y-68829853D03*
%TD*%
%TO.N,Col 0*%
%TO.C,SW2*%
X148739705Y-48870591D03*
%TO.N,Net-(D4-A)*%
X141970444Y-47895296D03*
%TD*%
%TO.N,Col 0*%
%TO.C,SW1*%
X119620000Y-40920000D03*
%TO.N,Net-(D1-A)*%
X113270000Y-43460000D03*
%TD*%
D16*
%TO.N,GND*%
%TO.C,J1*%
X85000000Y-108620000D03*
D17*
%TO.N,3.3v*%
X85000000Y-106080000D03*
%TO.N,SCL*%
X85000000Y-103540000D03*
%TO.N,RDA*%
X85000000Y-101000000D03*
%TO.N,RST*%
X85000000Y-98460000D03*
%TO.N,DC*%
X85000000Y-95920000D03*
%TO.N,GND*%
X85000000Y-93380000D03*
%TO.N,3.3v*%
X85000000Y-90840000D03*
%TD*%
D15*
%TO.N,Col 2*%
%TO.C,SW9*%
X65870591Y-126739705D03*
%TO.N,Net-(D9-A)*%
X71245296Y-130968966D03*
%TD*%
%TO.N,Col 1*%
%TO.C,SW5*%
X166024705Y-130769262D03*
%TO.N,Net-(D5-A)*%
X167000000Y-124000000D03*
%TD*%
%TO.N,Col 1*%
%TO.C,SW6*%
X145739705Y-151129409D03*
%TO.N,Net-(D8-A)*%
X149968966Y-145754705D03*
%TD*%
D12*
%TO.N,Row 1*%
%TO.C,D5*%
X112900000Y-114190000D03*
D10*
%TO.N,Net-(D5-A)*%
X112900000Y-121810000D03*
%TD*%
D12*
%TO.N,Row 2*%
%TO.C,D8*%
X123550000Y-114190000D03*
D10*
%TO.N,Net-(D8-A)*%
X123550000Y-121810000D03*
%TD*%
%TO.N,Row 2*%
D18*
X125840000Y-61840000D02*
X126000000Y-62000000D01*
X125840000Y-61700000D02*
X125840000Y-61840000D01*
%TO.N,Col 1*%
X118000000Y-61920000D02*
X118220000Y-61700000D01*
X118000000Y-61920000D02*
X118000000Y-62000000D01*
%TO.N,Net-(D1-A)*%
X113270000Y-43730000D02*
X113000000Y-44000000D01*
X113270000Y-43460000D02*
X113270000Y-43730000D01*
%TO.N,Col 0*%
X110800000Y-43950101D02*
X110800000Y-51740000D01*
X110800000Y-51740000D02*
X120760000Y-61700000D01*
X113830101Y-40920000D02*
X110800000Y-43950101D01*
X119620000Y-40920000D02*
X113830101Y-40920000D01*
%TO.N,Net-(D1-A)*%
X138205635Y-122910000D02*
X99800000Y-122910000D01*
X138850000Y-122265635D02*
X138205635Y-122910000D01*
X113270000Y-52454365D02*
X121860000Y-61044365D01*
X121860000Y-61044365D02*
X121860000Y-90140000D01*
X121860000Y-90140000D02*
X138850000Y-107130000D01*
X99800000Y-122910000D02*
X98700000Y-121810000D01*
X113270000Y-43460000D02*
X113270000Y-52454365D01*
X138850000Y-107130000D02*
X138850000Y-122265635D01*
%TO.N,Col 0*%
X119460000Y-63000000D02*
X120760000Y-61700000D01*
X106759188Y-61600000D02*
X108159188Y-63000000D01*
X96205839Y-61600000D02*
X106759188Y-61600000D01*
X108159188Y-63000000D02*
X119460000Y-63000000D01*
X87431034Y-52825195D02*
X96205839Y-61600000D01*
X87431034Y-51665397D02*
X87431034Y-52825195D01*
X86610933Y-50845296D02*
X87431034Y-51665397D01*
X85451135Y-50845296D02*
X86610933Y-50845296D01*
X84631034Y-51665397D02*
X85451135Y-50845296D01*
X84631034Y-52825195D02*
X84631034Y-51665397D01*
X59920000Y-77536229D02*
X84631034Y-52825195D01*
X59920000Y-96540000D02*
X59920000Y-77536229D01*
%TO.N,Net-(D11-A)*%
X126000000Y-115000000D02*
X132810000Y-121810000D01*
X132810000Y-121810000D02*
X134200000Y-121810000D01*
X87394744Y-74800000D02*
X126000000Y-113405256D01*
X68605149Y-74800000D02*
X87394744Y-74800000D01*
X126000000Y-113405256D02*
X126000000Y-115000000D01*
X67435296Y-73630147D02*
X68605149Y-74800000D01*
%TO.N,Net-(D12-A)*%
X112000000Y-97000000D02*
X129550000Y-114550000D01*
X129550000Y-114974744D02*
X136385256Y-121810000D01*
X112000000Y-78214262D02*
X112000000Y-97000000D01*
X136385256Y-121810000D02*
X137750000Y-121810000D01*
X86031034Y-52245296D02*
X112000000Y-78214262D01*
X129550000Y-114550000D02*
X129550000Y-114974744D01*
%TO.N,Col 2*%
X100850591Y-46870591D02*
X115680000Y-61700000D01*
X90260295Y-46870591D02*
X100850591Y-46870591D01*
%TD*%
M02*
