%TF.GenerationSoftware,KiCad,Pcbnew,10.0.4*%
%TF.CreationDate,2026-07-08T15:11:51+01:00*%
%TF.ProjectId,Blind_Clock,426c696e-645f-4436-9c6f-636b2e6b6963,rev?*%
%TF.SameCoordinates,Original*%
%TF.FileFunction,Soldermask,Top*%
%TF.FilePolarity,Negative*%
%FSLAX46Y46*%
G04 Gerber Fmt 4.6, Leading zero omitted, Abs format (unit mm)*
G04 Created by KiCad (PCBNEW 10.0.4) date 2026-07-08 15:11:51*
%MOMM*%
%LPD*%
G01*
G04 APERTURE LIST*
G04 Aperture macros list*
%AMRoundRect*
0 Rectangle with rounded corners*
0 $1 Rounding radius*
0 $2 $3 $4 $5 $6 $7 $8 $9 X,Y pos of 4 corners*
0 Add a 4 corners polygon primitive as box body*
4,1,4,$2,$3,$4,$5,$6,$7,$8,$9,$2,$3,0*
0 Add four circle primitives for the rounded corners*
1,1,$1+$1,$2,$3*
1,1,$1+$1,$4,$5*
1,1,$1+$1,$6,$7*
1,1,$1+$1,$8,$9*
0 Add four rect primitives between the rounded corners*
20,1,$1+$1,$2,$3,$4,$5,0*
20,1,$1+$1,$4,$5,$6,$7,0*
20,1,$1+$1,$6,$7,$8,$9,0*
20,1,$1+$1,$8,$9,$2,$3,0*%
G04 Aperture macros list end*
%ADD10C,1.600000*%
%ADD11R,1.600000X1.600000*%
%ADD12RoundRect,0.250000X-0.550000X0.550000X-0.550000X-0.550000X0.550000X-0.550000X0.550000X0.550000X0*%
%ADD13C,3.000000*%
%ADD14R,2.000000X2.000000*%
%ADD15O,1.600000X2.000000*%
%ADD16C,1.700000*%
%ADD17C,4.000000*%
%ADD18C,2.200000*%
%ADD19C,2.500000*%
%ADD20R,1.700000X1.700000*%
G04 APERTURE END LIST*
D10*
%TO.C,BZ1*%
X114400000Y-132000000D03*
D11*
X122000000Y-132000000D03*
%TD*%
D12*
%TO.C,D3*%
X105800000Y-114190000D03*
D10*
X105800000Y-121810000D03*
%TD*%
D12*
%TO.C,D2*%
X102250000Y-114190000D03*
D10*
X102250000Y-121810000D03*
%TD*%
D12*
%TO.C,D9*%
X127100000Y-114190000D03*
D10*
X127100000Y-121810000D03*
%TD*%
D12*
%TO.C,D4*%
X109350000Y-114190000D03*
D10*
X109350000Y-121810000D03*
%TD*%
D12*
%TO.C,D6*%
X116450000Y-114190000D03*
D10*
X116450000Y-121810000D03*
%TD*%
D12*
%TO.C,D7*%
X120000000Y-114190000D03*
D10*
X120000000Y-121810000D03*
%TD*%
D12*
%TO.C,D1*%
X98700000Y-114190000D03*
D10*
X98700000Y-121810000D03*
%TD*%
D12*
%TO.C,D11*%
X134200000Y-114190000D03*
D10*
X134200000Y-121810000D03*
%TD*%
D12*
%TO.C,D10*%
X130650000Y-114190000D03*
D10*
X130650000Y-121810000D03*
%TD*%
%TO.C,D12*%
X137750000Y-121810000D03*
D12*
X137750000Y-114190000D03*
%TD*%
D13*
%TO.C,U1*%
X106200000Y-62950000D03*
X106200000Y-83350000D03*
D14*
X110600000Y-61700000D03*
D15*
X113140000Y-61700000D03*
X115680000Y-61700000D03*
X118220000Y-61700000D03*
X120760000Y-61700000D03*
X123300000Y-61700000D03*
X125840000Y-61700000D03*
X128380000Y-61700000D03*
X128380000Y-84560000D03*
X125840000Y-84560000D03*
X123300000Y-84560000D03*
X120760000Y-84560000D03*
X118220000Y-84560000D03*
X115680000Y-84560000D03*
X113140000Y-84560000D03*
X110600000Y-84560000D03*
%TD*%
D16*
%TO.C,SW12*%
X86201181Y-55080000D03*
D17*
X90600590Y-52540000D03*
D16*
X95000000Y-50000000D03*
D18*
X90260295Y-46870591D03*
X86031034Y-52245296D03*
%TD*%
D16*
%TO.C,SW11*%
X69000000Y-76000000D03*
D17*
X71540000Y-71600591D03*
D16*
X74080000Y-67201181D03*
D18*
X68410591Y-66860886D03*
X67435296Y-73630147D03*
%TD*%
D16*
%TO.C,SW10*%
X65000000Y-104160000D03*
D17*
X65000000Y-99080000D03*
D16*
X65000000Y-94000000D03*
D18*
X59920000Y-96540000D03*
X62460001Y-102890000D03*
%TD*%
D16*
%TO.C,SW8*%
X95798819Y-147540000D03*
D17*
X91399410Y-145000000D03*
D16*
X87000000Y-142460000D03*
D18*
X86659705Y-148129409D03*
X93428966Y-149104704D03*
%TD*%
D16*
%TO.C,SW7*%
X123160000Y-152000000D03*
D17*
X118080000Y-152000000D03*
D16*
X113000000Y-152000000D03*
D18*
X115540000Y-157080000D03*
X121889999Y-154540000D03*
%TD*%
D16*
%TO.C,SW4*%
X169460001Y-94730000D03*
D17*
X169460001Y-99810000D03*
D16*
X169460001Y-104890000D03*
D18*
X174540001Y-102350000D03*
X172000000Y-96000000D03*
%TD*%
D16*
%TO.C,SW3*%
X160000000Y-69000000D03*
D17*
X162540000Y-73399409D03*
D16*
X165080000Y-77798819D03*
D18*
X168209409Y-73059114D03*
X162834704Y-68829853D03*
%TD*%
D16*
%TO.C,SW2*%
X139600591Y-49460000D03*
D17*
X144000000Y-52000000D03*
D16*
X148399410Y-54540000D03*
D18*
X148739705Y-48870591D03*
X141970444Y-47895296D03*
%TD*%
D16*
%TO.C,SW1*%
X112000000Y-46000000D03*
D17*
X117080000Y-46000000D03*
D16*
X122160000Y-46000000D03*
D18*
X119620000Y-40920000D03*
X113270000Y-43460000D03*
%TD*%
D19*
%TO.C,J1*%
X151540000Y-107860000D03*
X151540000Y-91600000D03*
D20*
X85000000Y-108620000D03*
D16*
X85000000Y-106080000D03*
X85000000Y-103540000D03*
X85000000Y-101000000D03*
X85000000Y-98460000D03*
X85000000Y-95920000D03*
X85000000Y-93380000D03*
X85000000Y-90840000D03*
%TD*%
%TO.C,SW9*%
X74080000Y-130798819D03*
D17*
X71540000Y-126399410D03*
D16*
X69000000Y-122000000D03*
D18*
X65870591Y-126739705D03*
X71245296Y-130968966D03*
%TD*%
D16*
%TO.C,SW5*%
X165435296Y-121630148D03*
D17*
X162895296Y-126029557D03*
D16*
X160355296Y-130428967D03*
D18*
X166024705Y-130769262D03*
X167000000Y-124000000D03*
%TD*%
D16*
%TO.C,SW6*%
X149798819Y-142920000D03*
D17*
X145399410Y-145460000D03*
D16*
X141000000Y-148000000D03*
D18*
X145739705Y-151129409D03*
X149968966Y-145754705D03*
%TD*%
D12*
%TO.C,D5*%
X112900000Y-114190000D03*
D10*
X112900000Y-121810000D03*
%TD*%
D12*
%TO.C,D8*%
X123550000Y-114190000D03*
D10*
X123550000Y-121810000D03*
%TD*%
M02*
