M48
; DRILL file KiCad 10.0.4 date 2026-07-08T15:11:56
; FORMAT={-:-/ absolute / metric / decimal}
; #@! TF.CreationDate,2026-07-08T15:11:56+01:00
; #@! TF.GenerationSoftware,Kicad,Pcbnew,10.0.4
; #@! TF.FileFunction,NonPlated,1,4,NPTH
FMAT,2
METRIC
; #@! TA.AperFunction,NonPlated,NPTH,ComponentDrill
T1C1.700
; #@! TA.AperFunction,NonPlated,NPTH,ComponentDrill
T2C2.000
; #@! TA.AperFunction,NonPlated,NPTH,ComponentDrill
T3C2.500
; #@! TA.AperFunction,NonPlated,NPTH,ComponentDrill
T4C4.000
%
G90
G05
T1
X65.0Y-94.0
X65.0Y-104.16
X69.0Y-76.0
X69.0Y-122.0
X74.08Y-67.201
X74.08Y-130.799
X86.201Y-55.08
X87.0Y-142.46
X95.0Y-50.0
X95.799Y-147.54
X112.0Y-46.0
X113.0Y-152.0
X122.16Y-46.0
X123.16Y-152.0
X139.601Y-49.46
X141.0Y-148.0
X148.399Y-54.54
X149.799Y-142.92
X160.0Y-69.0
X160.355Y-130.429
X165.08Y-77.799
X165.435Y-121.63
X169.46Y-94.73
X169.46Y-104.89
T2
X106.2Y-62.95
X106.2Y-83.35
T3
X151.54Y-91.6
X151.54Y-107.86
T4
X65.0Y-99.08
X71.54Y-71.601
X71.54Y-126.399
X90.601Y-52.54
X91.399Y-145.0
X117.08Y-46.0
X118.08Y-152.0
X144.0Y-52.0
X145.399Y-145.46
X162.54Y-73.399
X162.895Y-126.03
X169.46Y-99.81
M30
