%TF.GenerationSoftware,KiCad,Pcbnew,10.0.4*%
%TF.CreationDate,2026-07-08T15:11:50+01:00*%
%TF.ProjectId,Blind_Clock,426c696e-645f-4436-9c6f-636b2e6b6963,rev?*%
%TF.SameCoordinates,Original*%
%TF.FileFunction,Legend,Top*%
%TF.FilePolarity,Positive*%
%FSLAX46Y46*%
G04 Gerber Fmt 4.6, Leading zero omitted, Abs format (unit mm)*
G04 Created by KiCad (PCBNEW 10.0.4) date 2026-07-08 15:11:50*
%MOMM*%
%LPD*%
G01*
G04 APERTURE LIST*
%ADD10C,0.150000*%
%ADD11C,0.120000*%
%ADD12C,0.350000*%
G04 APERTURE END LIST*
D10*
X85300096Y-46978323D02*
X85447623Y-46948134D01*
X85447623Y-46948134D02*
X85653820Y-46829086D01*
X85653820Y-46829086D02*
X85712489Y-46740228D01*
X85712489Y-46740228D02*
X85729919Y-46675179D01*
X85729919Y-46675179D02*
X85723539Y-46568891D01*
X85723539Y-46568891D02*
X85675920Y-46486412D01*
X85675920Y-46486412D02*
X85587062Y-46427743D01*
X85587062Y-46427743D02*
X85522013Y-46410313D01*
X85522013Y-46410313D02*
X85415725Y-46416693D01*
X85415725Y-46416693D02*
X85226958Y-46470692D01*
X85226958Y-46470692D02*
X85120670Y-46477072D01*
X85120670Y-46477072D02*
X85055621Y-46459642D01*
X85055621Y-46459642D02*
X84966763Y-46400973D01*
X84966763Y-46400973D02*
X84919144Y-46318494D01*
X84919144Y-46318494D02*
X84912764Y-46212206D01*
X84912764Y-46212206D02*
X84930194Y-46147157D01*
X84930194Y-46147157D02*
X84988863Y-46058299D01*
X84988863Y-46058299D02*
X85195059Y-45939251D01*
X85195059Y-45939251D02*
X85342587Y-45909062D01*
X85607452Y-45701156D02*
X86313649Y-46448134D01*
X86313649Y-46448134D02*
X86121463Y-45734306D01*
X86121463Y-45734306D02*
X86643563Y-46257657D01*
X86643563Y-46257657D02*
X86349760Y-45272584D01*
X87633306Y-45686229D02*
X87138435Y-45971943D01*
X87385871Y-45829086D02*
X86885871Y-44963061D01*
X86885871Y-44963061D02*
X86874821Y-45134398D01*
X86874821Y-45134398D02*
X86839961Y-45264495D01*
X86839961Y-45264495D02*
X86781292Y-45353354D01*
X87510840Y-44712206D02*
X87528270Y-44647157D01*
X87528270Y-44647157D02*
X87586939Y-44558299D01*
X87586939Y-44558299D02*
X87793135Y-44439251D01*
X87793135Y-44439251D02*
X87899423Y-44432871D01*
X87899423Y-44432871D02*
X87964472Y-44450301D01*
X87964472Y-44450301D02*
X88053331Y-44508970D01*
X88053331Y-44508970D02*
X88100950Y-44591449D01*
X88100950Y-44591449D02*
X88131139Y-44738976D01*
X88131139Y-44738976D02*
X87921982Y-45519562D01*
X87921982Y-45519562D02*
X88458093Y-45210038D01*
X64168799Y-69434284D02*
X64281467Y-69334376D01*
X64281467Y-69334376D02*
X64400515Y-69128179D01*
X64400515Y-69128179D02*
X64406894Y-69021891D01*
X64406894Y-69021891D02*
X64389465Y-68956842D01*
X64389465Y-68956842D02*
X64330796Y-68867984D01*
X64330796Y-68867984D02*
X64248317Y-68820365D01*
X64248317Y-68820365D02*
X64142029Y-68813985D01*
X64142029Y-68813985D02*
X64076980Y-68831415D01*
X64076980Y-68831415D02*
X63988122Y-68890084D01*
X63988122Y-68890084D02*
X63851644Y-69031232D01*
X63851644Y-69031232D02*
X63762786Y-69089901D01*
X63762786Y-69089901D02*
X63697737Y-69107330D01*
X63697737Y-69107330D02*
X63591449Y-69100951D01*
X63591449Y-69100951D02*
X63508970Y-69053332D01*
X63508970Y-69053332D02*
X63450301Y-68964473D01*
X63450301Y-68964473D02*
X63432871Y-68899425D01*
X63432871Y-68899425D02*
X63439251Y-68793136D01*
X63439251Y-68793136D02*
X63558299Y-68586940D01*
X63558299Y-68586940D02*
X63670967Y-68487031D01*
X63796394Y-68174547D02*
X64781467Y-68468350D01*
X64781467Y-68468350D02*
X64258116Y-67946250D01*
X64258116Y-67946250D02*
X64971943Y-68138436D01*
X64971943Y-68138436D02*
X64224965Y-67432239D01*
X65543372Y-67148693D02*
X65257657Y-67643564D01*
X65400515Y-67396128D02*
X64534489Y-66896128D01*
X64534489Y-66896128D02*
X64610588Y-67050036D01*
X64610588Y-67050036D02*
X64645448Y-67180133D01*
X64645448Y-67180133D02*
X64639068Y-67286421D01*
X66019562Y-66323906D02*
X65733848Y-66818778D01*
X65876705Y-66571342D02*
X65010680Y-66071342D01*
X65010680Y-66071342D02*
X65086779Y-66225249D01*
X65086779Y-66225249D02*
X65121638Y-66355347D01*
X65121638Y-66355347D02*
X65115258Y-66461635D01*
X57533200Y-100889523D02*
X57580819Y-100746666D01*
X57580819Y-100746666D02*
X57580819Y-100508571D01*
X57580819Y-100508571D02*
X57533200Y-100413333D01*
X57533200Y-100413333D02*
X57485580Y-100365714D01*
X57485580Y-100365714D02*
X57390342Y-100318095D01*
X57390342Y-100318095D02*
X57295104Y-100318095D01*
X57295104Y-100318095D02*
X57199866Y-100365714D01*
X57199866Y-100365714D02*
X57152247Y-100413333D01*
X57152247Y-100413333D02*
X57104628Y-100508571D01*
X57104628Y-100508571D02*
X57057009Y-100699047D01*
X57057009Y-100699047D02*
X57009390Y-100794285D01*
X57009390Y-100794285D02*
X56961771Y-100841904D01*
X56961771Y-100841904D02*
X56866533Y-100889523D01*
X56866533Y-100889523D02*
X56771295Y-100889523D01*
X56771295Y-100889523D02*
X56676057Y-100841904D01*
X56676057Y-100841904D02*
X56628438Y-100794285D01*
X56628438Y-100794285D02*
X56580819Y-100699047D01*
X56580819Y-100699047D02*
X56580819Y-100460952D01*
X56580819Y-100460952D02*
X56628438Y-100318095D01*
X56580819Y-99984761D02*
X57580819Y-99746666D01*
X57580819Y-99746666D02*
X56866533Y-99556190D01*
X56866533Y-99556190D02*
X57580819Y-99365714D01*
X57580819Y-99365714D02*
X56580819Y-99127619D01*
X57580819Y-98222857D02*
X57580819Y-98794285D01*
X57580819Y-98508571D02*
X56580819Y-98508571D01*
X56580819Y-98508571D02*
X56723676Y-98603809D01*
X56723676Y-98603809D02*
X56818914Y-98699047D01*
X56818914Y-98699047D02*
X56866533Y-98794285D01*
X56580819Y-97603809D02*
X56580819Y-97508571D01*
X56580819Y-97508571D02*
X56628438Y-97413333D01*
X56628438Y-97413333D02*
X56676057Y-97365714D01*
X56676057Y-97365714D02*
X56771295Y-97318095D01*
X56771295Y-97318095D02*
X56961771Y-97270476D01*
X56961771Y-97270476D02*
X57199866Y-97270476D01*
X57199866Y-97270476D02*
X57390342Y-97318095D01*
X57390342Y-97318095D02*
X57485580Y-97365714D01*
X57485580Y-97365714D02*
X57533200Y-97413333D01*
X57533200Y-97413333D02*
X57580819Y-97508571D01*
X57580819Y-97508571D02*
X57580819Y-97603809D01*
X57580819Y-97603809D02*
X57533200Y-97699047D01*
X57533200Y-97699047D02*
X57485580Y-97746666D01*
X57485580Y-97746666D02*
X57390342Y-97794285D01*
X57390342Y-97794285D02*
X57199866Y-97841904D01*
X57199866Y-97841904D02*
X56961771Y-97841904D01*
X56961771Y-97841904D02*
X56771295Y-97794285D01*
X56771295Y-97794285D02*
X56676057Y-97746666D01*
X56676057Y-97746666D02*
X56628438Y-97699047D01*
X56628438Y-97699047D02*
X56580819Y-97603809D01*
X86104109Y-151505063D02*
X86204018Y-151617731D01*
X86204018Y-151617731D02*
X86410214Y-151736778D01*
X86410214Y-151736778D02*
X86516502Y-151743158D01*
X86516502Y-151743158D02*
X86581551Y-151725728D01*
X86581551Y-151725728D02*
X86670410Y-151667059D01*
X86670410Y-151667059D02*
X86718029Y-151584580D01*
X86718029Y-151584580D02*
X86724408Y-151478292D01*
X86724408Y-151478292D02*
X86706979Y-151413243D01*
X86706979Y-151413243D02*
X86648310Y-151324385D01*
X86648310Y-151324385D02*
X86507162Y-151187908D01*
X86507162Y-151187908D02*
X86448493Y-151099049D01*
X86448493Y-151099049D02*
X86431063Y-151034001D01*
X86431063Y-151034001D02*
X86437443Y-150927712D01*
X86437443Y-150927712D02*
X86485062Y-150845234D01*
X86485062Y-150845234D02*
X86573920Y-150786565D01*
X86573920Y-150786565D02*
X86638969Y-150769135D01*
X86638969Y-150769135D02*
X86745257Y-150775515D01*
X86745257Y-150775515D02*
X86951454Y-150894562D01*
X86951454Y-150894562D02*
X87051362Y-151007230D01*
X87363847Y-151132658D02*
X87070043Y-152117731D01*
X87070043Y-152117731D02*
X87592143Y-151594379D01*
X87592143Y-151594379D02*
X87399958Y-152308207D01*
X87399958Y-152308207D02*
X88106154Y-151561229D01*
X88345501Y-152194287D02*
X88286832Y-152105429D01*
X88286832Y-152105429D02*
X88269402Y-152040380D01*
X88269402Y-152040380D02*
X88275782Y-151934092D01*
X88275782Y-151934092D02*
X88299591Y-151892853D01*
X88299591Y-151892853D02*
X88388449Y-151834184D01*
X88388449Y-151834184D02*
X88453498Y-151816754D01*
X88453498Y-151816754D02*
X88559786Y-151823134D01*
X88559786Y-151823134D02*
X88724744Y-151918372D01*
X88724744Y-151918372D02*
X88783413Y-152007230D01*
X88783413Y-152007230D02*
X88800843Y-152072279D01*
X88800843Y-152072279D02*
X88794463Y-152178567D01*
X88794463Y-152178567D02*
X88770653Y-152219806D01*
X88770653Y-152219806D02*
X88681795Y-152278475D01*
X88681795Y-152278475D02*
X88616746Y-152295905D01*
X88616746Y-152295905D02*
X88510458Y-152289525D01*
X88510458Y-152289525D02*
X88345501Y-152194287D01*
X88345501Y-152194287D02*
X88239213Y-152187908D01*
X88239213Y-152187908D02*
X88174164Y-152205337D01*
X88174164Y-152205337D02*
X88085305Y-152264007D01*
X88085305Y-152264007D02*
X87990067Y-152428964D01*
X87990067Y-152428964D02*
X87983688Y-152535252D01*
X87983688Y-152535252D02*
X88001117Y-152600301D01*
X88001117Y-152600301D02*
X88059786Y-152689159D01*
X88059786Y-152689159D02*
X88224744Y-152784397D01*
X88224744Y-152784397D02*
X88331032Y-152790777D01*
X88331032Y-152790777D02*
X88396081Y-152773347D01*
X88396081Y-152773347D02*
X88484939Y-152714678D01*
X88484939Y-152714678D02*
X88580177Y-152549721D01*
X88580177Y-152549721D02*
X88586557Y-152443433D01*
X88586557Y-152443433D02*
X88569127Y-152378384D01*
X88569127Y-152378384D02*
X88510458Y-152289525D01*
X116746667Y-160281200D02*
X116889524Y-160328819D01*
X116889524Y-160328819D02*
X117127619Y-160328819D01*
X117127619Y-160328819D02*
X117222857Y-160281200D01*
X117222857Y-160281200D02*
X117270476Y-160233580D01*
X117270476Y-160233580D02*
X117318095Y-160138342D01*
X117318095Y-160138342D02*
X117318095Y-160043104D01*
X117318095Y-160043104D02*
X117270476Y-159947866D01*
X117270476Y-159947866D02*
X117222857Y-159900247D01*
X117222857Y-159900247D02*
X117127619Y-159852628D01*
X117127619Y-159852628D02*
X116937143Y-159805009D01*
X116937143Y-159805009D02*
X116841905Y-159757390D01*
X116841905Y-159757390D02*
X116794286Y-159709771D01*
X116794286Y-159709771D02*
X116746667Y-159614533D01*
X116746667Y-159614533D02*
X116746667Y-159519295D01*
X116746667Y-159519295D02*
X116794286Y-159424057D01*
X116794286Y-159424057D02*
X116841905Y-159376438D01*
X116841905Y-159376438D02*
X116937143Y-159328819D01*
X116937143Y-159328819D02*
X117175238Y-159328819D01*
X117175238Y-159328819D02*
X117318095Y-159376438D01*
X117651429Y-159328819D02*
X117889524Y-160328819D01*
X117889524Y-160328819D02*
X118080000Y-159614533D01*
X118080000Y-159614533D02*
X118270476Y-160328819D01*
X118270476Y-160328819D02*
X118508572Y-159328819D01*
X118794286Y-159328819D02*
X119460952Y-159328819D01*
X119460952Y-159328819D02*
X119032381Y-160328819D01*
X177741201Y-101143332D02*
X177788820Y-101000475D01*
X177788820Y-101000475D02*
X177788820Y-100762380D01*
X177788820Y-100762380D02*
X177741201Y-100667142D01*
X177741201Y-100667142D02*
X177693581Y-100619523D01*
X177693581Y-100619523D02*
X177598343Y-100571904D01*
X177598343Y-100571904D02*
X177503105Y-100571904D01*
X177503105Y-100571904D02*
X177407867Y-100619523D01*
X177407867Y-100619523D02*
X177360248Y-100667142D01*
X177360248Y-100667142D02*
X177312629Y-100762380D01*
X177312629Y-100762380D02*
X177265010Y-100952856D01*
X177265010Y-100952856D02*
X177217391Y-101048094D01*
X177217391Y-101048094D02*
X177169772Y-101095713D01*
X177169772Y-101095713D02*
X177074534Y-101143332D01*
X177074534Y-101143332D02*
X176979296Y-101143332D01*
X176979296Y-101143332D02*
X176884058Y-101095713D01*
X176884058Y-101095713D02*
X176836439Y-101048094D01*
X176836439Y-101048094D02*
X176788820Y-100952856D01*
X176788820Y-100952856D02*
X176788820Y-100714761D01*
X176788820Y-100714761D02*
X176836439Y-100571904D01*
X176788820Y-100238570D02*
X177788820Y-100000475D01*
X177788820Y-100000475D02*
X177074534Y-99809999D01*
X177074534Y-99809999D02*
X177788820Y-99619523D01*
X177788820Y-99619523D02*
X176788820Y-99381428D01*
X177122153Y-98571904D02*
X177788820Y-98571904D01*
X176741201Y-98809999D02*
X177455486Y-99048094D01*
X177455486Y-99048094D02*
X177455486Y-98429047D01*
X168339772Y-68511308D02*
X168369961Y-68658836D01*
X168369961Y-68658836D02*
X168489008Y-68865032D01*
X168489008Y-68865032D02*
X168577867Y-68923701D01*
X168577867Y-68923701D02*
X168642916Y-68941131D01*
X168642916Y-68941131D02*
X168749204Y-68934752D01*
X168749204Y-68934752D02*
X168831682Y-68887132D01*
X168831682Y-68887132D02*
X168890351Y-68798274D01*
X168890351Y-68798274D02*
X168907781Y-68733225D01*
X168907781Y-68733225D02*
X168901401Y-68626937D01*
X168901401Y-68626937D02*
X168847403Y-68438170D01*
X168847403Y-68438170D02*
X168841023Y-68331882D01*
X168841023Y-68331882D02*
X168858453Y-68266833D01*
X168858453Y-68266833D02*
X168917122Y-68177975D01*
X168917122Y-68177975D02*
X168999600Y-68130356D01*
X168999600Y-68130356D02*
X169105889Y-68123976D01*
X169105889Y-68123976D02*
X169170937Y-68141406D01*
X169170937Y-68141406D02*
X169259796Y-68200075D01*
X169259796Y-68200075D02*
X169378843Y-68406272D01*
X169378843Y-68406272D02*
X169409033Y-68553799D01*
X169616939Y-68818665D02*
X168869961Y-69524861D01*
X168869961Y-69524861D02*
X169583789Y-69332676D01*
X169583789Y-69332676D02*
X169060437Y-69854776D01*
X169060437Y-69854776D02*
X170045510Y-69560972D01*
X170188367Y-69808408D02*
X170497891Y-70344519D01*
X170497891Y-70344519D02*
X170001310Y-70246320D01*
X170001310Y-70246320D02*
X170072738Y-70370038D01*
X170072738Y-70370038D02*
X170079118Y-70476326D01*
X170079118Y-70476326D02*
X170061688Y-70541375D01*
X170061688Y-70541375D02*
X170003019Y-70630233D01*
X170003019Y-70630233D02*
X169796823Y-70749281D01*
X169796823Y-70749281D02*
X169690535Y-70755661D01*
X169690535Y-70755661D02*
X169625486Y-70738231D01*
X169625486Y-70738231D02*
X169536627Y-70679562D01*
X169536627Y-70679562D02*
X169393770Y-70432126D01*
X169393770Y-70432126D02*
X169387391Y-70325838D01*
X169387391Y-70325838D02*
X169404820Y-70260789D01*
X146578699Y-44866895D02*
X146678608Y-44979563D01*
X146678608Y-44979563D02*
X146884804Y-45098610D01*
X146884804Y-45098610D02*
X146991092Y-45104990D01*
X146991092Y-45104990D02*
X147056141Y-45087560D01*
X147056141Y-45087560D02*
X147145000Y-45028891D01*
X147145000Y-45028891D02*
X147192619Y-44946412D01*
X147192619Y-44946412D02*
X147198998Y-44840124D01*
X147198998Y-44840124D02*
X147181569Y-44775075D01*
X147181569Y-44775075D02*
X147122900Y-44686217D01*
X147122900Y-44686217D02*
X146981752Y-44549740D01*
X146981752Y-44549740D02*
X146923083Y-44460881D01*
X146923083Y-44460881D02*
X146905653Y-44395833D01*
X146905653Y-44395833D02*
X146912033Y-44289544D01*
X146912033Y-44289544D02*
X146959652Y-44207066D01*
X146959652Y-44207066D02*
X147048510Y-44148397D01*
X147048510Y-44148397D02*
X147113559Y-44130967D01*
X147113559Y-44130967D02*
X147219847Y-44137347D01*
X147219847Y-44137347D02*
X147426044Y-44256394D01*
X147426044Y-44256394D02*
X147525952Y-44369062D01*
X147838437Y-44494490D02*
X147544633Y-45479563D01*
X147544633Y-45479563D02*
X148066733Y-44956211D01*
X148066733Y-44956211D02*
X147874548Y-45670039D01*
X147874548Y-45670039D02*
X148580744Y-44923061D01*
X148821800Y-45172206D02*
X148886849Y-45154776D01*
X148886849Y-45154776D02*
X148993137Y-45161156D01*
X148993137Y-45161156D02*
X149199334Y-45280204D01*
X149199334Y-45280204D02*
X149258003Y-45369062D01*
X149258003Y-45369062D02*
X149275433Y-45434111D01*
X149275433Y-45434111D02*
X149269053Y-45540399D01*
X149269053Y-45540399D02*
X149221434Y-45622878D01*
X149221434Y-45622878D02*
X149108766Y-45722786D01*
X149108766Y-45722786D02*
X148328180Y-45931943D01*
X148328180Y-45931943D02*
X148864291Y-46241467D01*
X115746667Y-38533200D02*
X115889524Y-38580819D01*
X115889524Y-38580819D02*
X116127619Y-38580819D01*
X116127619Y-38580819D02*
X116222857Y-38533200D01*
X116222857Y-38533200D02*
X116270476Y-38485580D01*
X116270476Y-38485580D02*
X116318095Y-38390342D01*
X116318095Y-38390342D02*
X116318095Y-38295104D01*
X116318095Y-38295104D02*
X116270476Y-38199866D01*
X116270476Y-38199866D02*
X116222857Y-38152247D01*
X116222857Y-38152247D02*
X116127619Y-38104628D01*
X116127619Y-38104628D02*
X115937143Y-38057009D01*
X115937143Y-38057009D02*
X115841905Y-38009390D01*
X115841905Y-38009390D02*
X115794286Y-37961771D01*
X115794286Y-37961771D02*
X115746667Y-37866533D01*
X115746667Y-37866533D02*
X115746667Y-37771295D01*
X115746667Y-37771295D02*
X115794286Y-37676057D01*
X115794286Y-37676057D02*
X115841905Y-37628438D01*
X115841905Y-37628438D02*
X115937143Y-37580819D01*
X115937143Y-37580819D02*
X116175238Y-37580819D01*
X116175238Y-37580819D02*
X116318095Y-37628438D01*
X116651429Y-37580819D02*
X116889524Y-38580819D01*
X116889524Y-38580819D02*
X117080000Y-37866533D01*
X117080000Y-37866533D02*
X117270476Y-38580819D01*
X117270476Y-38580819D02*
X117508572Y-37580819D01*
X118413333Y-38580819D02*
X117841905Y-38580819D01*
X118127619Y-38580819D02*
X118127619Y-37580819D01*
X118127619Y-37580819D02*
X118032381Y-37723676D01*
X118032381Y-37723676D02*
X117937143Y-37818914D01*
X117937143Y-37818914D02*
X117841905Y-37866533D01*
X78054819Y-100063333D02*
X78769104Y-100063333D01*
X78769104Y-100063333D02*
X78911961Y-100110952D01*
X78911961Y-100110952D02*
X79007200Y-100206190D01*
X79007200Y-100206190D02*
X79054819Y-100349047D01*
X79054819Y-100349047D02*
X79054819Y-100444285D01*
X79054819Y-99063333D02*
X79054819Y-99634761D01*
X79054819Y-99349047D02*
X78054819Y-99349047D01*
X78054819Y-99349047D02*
X78197676Y-99444285D01*
X78197676Y-99444285D02*
X78292914Y-99539523D01*
X78292914Y-99539523D02*
X78340533Y-99634761D01*
X63701604Y-129385309D02*
X63731793Y-129532837D01*
X63731793Y-129532837D02*
X63850840Y-129739033D01*
X63850840Y-129739033D02*
X63939699Y-129797702D01*
X63939699Y-129797702D02*
X64004748Y-129815132D01*
X64004748Y-129815132D02*
X64111036Y-129808753D01*
X64111036Y-129808753D02*
X64193514Y-129761133D01*
X64193514Y-129761133D02*
X64252183Y-129672275D01*
X64252183Y-129672275D02*
X64269613Y-129607226D01*
X64269613Y-129607226D02*
X64263233Y-129500938D01*
X64263233Y-129500938D02*
X64209235Y-129312171D01*
X64209235Y-129312171D02*
X64202855Y-129205883D01*
X64202855Y-129205883D02*
X64220285Y-129140834D01*
X64220285Y-129140834D02*
X64278954Y-129051976D01*
X64278954Y-129051976D02*
X64361432Y-129004357D01*
X64361432Y-129004357D02*
X64467721Y-128997977D01*
X64467721Y-128997977D02*
X64532769Y-129015407D01*
X64532769Y-129015407D02*
X64621628Y-129074076D01*
X64621628Y-129074076D02*
X64740675Y-129280273D01*
X64740675Y-129280273D02*
X64770865Y-129427800D01*
X64978771Y-129692666D02*
X64231793Y-130398862D01*
X64231793Y-130398862D02*
X64945621Y-130206677D01*
X64945621Y-130206677D02*
X64422269Y-130728777D01*
X64422269Y-130728777D02*
X65407342Y-130434973D01*
X64755602Y-131306127D02*
X64850840Y-131471084D01*
X64850840Y-131471084D02*
X64939699Y-131529753D01*
X64939699Y-131529753D02*
X65004748Y-131547183D01*
X65004748Y-131547183D02*
X65176085Y-131558233D01*
X65176085Y-131558233D02*
X65364851Y-131504234D01*
X65364851Y-131504234D02*
X65694766Y-131313758D01*
X65694766Y-131313758D02*
X65753435Y-131224900D01*
X65753435Y-131224900D02*
X65770865Y-131159851D01*
X65770865Y-131159851D02*
X65764485Y-131053563D01*
X65764485Y-131053563D02*
X65669247Y-130888605D01*
X65669247Y-130888605D02*
X65580388Y-130829936D01*
X65580388Y-130829936D02*
X65515340Y-130812507D01*
X65515340Y-130812507D02*
X65409051Y-130818886D01*
X65409051Y-130818886D02*
X65202855Y-130937934D01*
X65202855Y-130937934D02*
X65144186Y-131026792D01*
X65144186Y-131026792D02*
X65126756Y-131091841D01*
X65126756Y-131091841D02*
X65133136Y-131198129D01*
X65133136Y-131198129D02*
X65228374Y-131363087D01*
X65228374Y-131363087D02*
X65317232Y-131421756D01*
X65317232Y-131421756D02*
X65382281Y-131439185D01*
X65382281Y-131439185D02*
X65488569Y-131432806D01*
X169400359Y-131324857D02*
X169513027Y-131224948D01*
X169513027Y-131224948D02*
X169632074Y-131018752D01*
X169632074Y-131018752D02*
X169638454Y-130912464D01*
X169638454Y-130912464D02*
X169621024Y-130847415D01*
X169621024Y-130847415D02*
X169562355Y-130758556D01*
X169562355Y-130758556D02*
X169479876Y-130710937D01*
X169479876Y-130710937D02*
X169373588Y-130704558D01*
X169373588Y-130704558D02*
X169308539Y-130721987D01*
X169308539Y-130721987D02*
X169219681Y-130780656D01*
X169219681Y-130780656D02*
X169083204Y-130921804D01*
X169083204Y-130921804D02*
X168994345Y-130980473D01*
X168994345Y-130980473D02*
X168929297Y-130997903D01*
X168929297Y-130997903D02*
X168823008Y-130991523D01*
X168823008Y-130991523D02*
X168740530Y-130943904D01*
X168740530Y-130943904D02*
X168681861Y-130855046D01*
X168681861Y-130855046D02*
X168664431Y-130789997D01*
X168664431Y-130789997D02*
X168670811Y-130683709D01*
X168670811Y-130683709D02*
X168789858Y-130477512D01*
X168789858Y-130477512D02*
X168902526Y-130377604D01*
X169027954Y-130065119D02*
X170013027Y-130358923D01*
X170013027Y-130358923D02*
X169489675Y-129836823D01*
X169489675Y-129836823D02*
X170203503Y-130029008D01*
X170203503Y-130029008D02*
X169456525Y-129322812D01*
X169885096Y-128580504D02*
X169647001Y-128992897D01*
X169647001Y-128992897D02*
X170035585Y-129272232D01*
X170035585Y-129272232D02*
X170018155Y-129207183D01*
X170018155Y-129207183D02*
X170024535Y-129100895D01*
X170024535Y-129100895D02*
X170143582Y-128894699D01*
X170143582Y-128894699D02*
X170232441Y-128836029D01*
X170232441Y-128836029D02*
X170297489Y-128818600D01*
X170297489Y-128818600D02*
X170403777Y-128824979D01*
X170403777Y-128824979D02*
X170609974Y-128944027D01*
X170609974Y-128944027D02*
X170668643Y-129032885D01*
X170668643Y-129032885D02*
X170686073Y-129097934D01*
X170686073Y-129097934D02*
X170679693Y-129204222D01*
X170679693Y-129204222D02*
X170560646Y-129410419D01*
X170560646Y-129410419D02*
X170471787Y-129469088D01*
X170471787Y-129469088D02*
X170406738Y-129486518D01*
X148385309Y-153298395D02*
X148532837Y-153268206D01*
X148532837Y-153268206D02*
X148739033Y-153149159D01*
X148739033Y-153149159D02*
X148797702Y-153060300D01*
X148797702Y-153060300D02*
X148815132Y-152995251D01*
X148815132Y-152995251D02*
X148808753Y-152888963D01*
X148808753Y-152888963D02*
X148761133Y-152806485D01*
X148761133Y-152806485D02*
X148672275Y-152747816D01*
X148672275Y-152747816D02*
X148607226Y-152730386D01*
X148607226Y-152730386D02*
X148500938Y-152736766D01*
X148500938Y-152736766D02*
X148312171Y-152790764D01*
X148312171Y-152790764D02*
X148205883Y-152797144D01*
X148205883Y-152797144D02*
X148140834Y-152779714D01*
X148140834Y-152779714D02*
X148051976Y-152721045D01*
X148051976Y-152721045D02*
X148004357Y-152638567D01*
X148004357Y-152638567D02*
X147997977Y-152532278D01*
X147997977Y-152532278D02*
X148015407Y-152467230D01*
X148015407Y-152467230D02*
X148074076Y-152378371D01*
X148074076Y-152378371D02*
X148280273Y-152259324D01*
X148280273Y-152259324D02*
X148427800Y-152229134D01*
X148692666Y-152021228D02*
X149398862Y-152768206D01*
X149398862Y-152768206D02*
X149206677Y-152054378D01*
X149206677Y-152054378D02*
X149728777Y-152577730D01*
X149728777Y-152577730D02*
X149434973Y-151592657D01*
X150136041Y-151187895D02*
X149971084Y-151283133D01*
X149971084Y-151283133D02*
X149912415Y-151371992D01*
X149912415Y-151371992D02*
X149894985Y-151437040D01*
X149894985Y-151437040D02*
X149883935Y-151608377D01*
X149883935Y-151608377D02*
X149937934Y-151797144D01*
X149937934Y-151797144D02*
X150128410Y-152127059D01*
X150128410Y-152127059D02*
X150217269Y-152185728D01*
X150217269Y-152185728D02*
X150282317Y-152203157D01*
X150282317Y-152203157D02*
X150388605Y-152196778D01*
X150388605Y-152196778D02*
X150553563Y-152101540D01*
X150553563Y-152101540D02*
X150612232Y-152012681D01*
X150612232Y-152012681D02*
X150629662Y-151947632D01*
X150629662Y-151947632D02*
X150623282Y-151841344D01*
X150623282Y-151841344D02*
X150504234Y-151635148D01*
X150504234Y-151635148D02*
X150415376Y-151576479D01*
X150415376Y-151576479D02*
X150350327Y-151559049D01*
X150350327Y-151559049D02*
X150244039Y-151565429D01*
X150244039Y-151565429D02*
X150079082Y-151660667D01*
X150079082Y-151660667D02*
X150020413Y-151749525D01*
X150020413Y-151749525D02*
X150002983Y-151814574D01*
X150002983Y-151814574D02*
X150009363Y-151920862D01*
%TO.C,SW12*%
D11*
X81058903Y-49983313D02*
X93157278Y-42998313D01*
X88043903Y-62081687D02*
X81058903Y-49983313D01*
X93157278Y-42998313D02*
X100142278Y-55096687D01*
X100142278Y-55096687D02*
X88043903Y-62081687D01*
%TO.C,SW11*%
X61998313Y-74157278D02*
X68983313Y-62058903D01*
X74096687Y-81142278D02*
X61998313Y-74157278D01*
X68983313Y-62058903D02*
X81081687Y-69043903D01*
X81081687Y-69043903D02*
X74096687Y-81142278D01*
%TO.C,SW10*%
X58015000Y-106065000D02*
X58015000Y-92095000D01*
X71985000Y-106065000D02*
X58015000Y-106065000D01*
X58015000Y-92095000D02*
X71985000Y-92095000D01*
X71985000Y-92095000D02*
X71985000Y-106065000D01*
%TO.C,SW8*%
X93956097Y-154541687D02*
X81857722Y-147556687D01*
X100941097Y-142443313D02*
X93956097Y-154541687D01*
X81857722Y-147556687D02*
X88842722Y-135458313D01*
X88842722Y-135458313D02*
X100941097Y-142443313D01*
%TO.C,SW7*%
X125065000Y-158985000D02*
X111095000Y-158985000D01*
X125065000Y-145015000D02*
X125065000Y-158985000D01*
X111095000Y-158985000D02*
X111095000Y-145015000D01*
X111095000Y-145015000D02*
X125065000Y-145015000D01*
%TO.C,SW4*%
X176445001Y-92825000D02*
X176445001Y-106795000D01*
X162475001Y-92825000D02*
X176445001Y-92825000D01*
X176445001Y-106795000D02*
X162475001Y-106795000D01*
X162475001Y-106795000D02*
X162475001Y-92825000D01*
%TO.C,SW3*%
X165096687Y-63857722D02*
X172081687Y-75956097D01*
X152998313Y-70842722D02*
X165096687Y-63857722D01*
X172081687Y-75956097D02*
X159983313Y-82941097D01*
X159983313Y-82941097D02*
X152998313Y-70842722D01*
%TO.C,SW2*%
X141443313Y-42458313D02*
X153541688Y-49443313D01*
X134458313Y-54556687D02*
X141443313Y-42458313D01*
X153541688Y-49443313D02*
X146556688Y-61541687D01*
X146556688Y-61541687D02*
X134458313Y-54556687D01*
%TO.C,SW1*%
X110095000Y-39015000D02*
X124065000Y-39015000D01*
X110095000Y-52985000D02*
X110095000Y-39015000D01*
X124065000Y-39015000D02*
X124065000Y-52985000D01*
X124065000Y-52985000D02*
X110095000Y-52985000D01*
%TO.C,J1*%
X80800000Y-110270000D02*
X80800000Y-89190000D01*
X153950000Y-110270000D02*
X80800000Y-110270000D01*
X80800000Y-89190000D02*
X153950000Y-89190000D01*
X153950000Y-89190000D02*
X153950000Y-110270000D01*
D12*
X82675000Y-109920000D02*
G75*
G02*
X82325000Y-109920000I-175000J0D01*
G01*
X82325000Y-109920000D02*
G75*
G02*
X82675000Y-109920000I175000J0D01*
G01*
D11*
X153140000Y-107860000D02*
G75*
G02*
X149940000Y-107860000I-1600000J0D01*
G01*
X149940000Y-107860000D02*
G75*
G02*
X153140000Y-107860000I1600000J0D01*
G01*
X153140000Y-91600000D02*
G75*
G02*
X149940000Y-91600000I-1600000J0D01*
G01*
X149940000Y-91600000D02*
G75*
G02*
X153140000Y-91600000I1600000J0D01*
G01*
%TO.C,SW9*%
X68983313Y-135941097D02*
X61998313Y-123842722D01*
X81081687Y-128956097D02*
X68983313Y-135941097D01*
X61998313Y-123842722D02*
X74096687Y-116857722D01*
X74096687Y-116857722D02*
X81081687Y-128956097D01*
%TO.C,SW5*%
X172436983Y-123472870D02*
X165451983Y-135571245D01*
X160338609Y-116487870D02*
X172436983Y-123472870D01*
X165451983Y-135571245D02*
X153353609Y-128586245D01*
X153353609Y-128586245D02*
X160338609Y-116487870D01*
%TO.C,SW6*%
X154941097Y-148016687D02*
X142842722Y-155001687D01*
X147956097Y-135918313D02*
X154941097Y-148016687D01*
X142842722Y-155001687D02*
X135857722Y-142903313D01*
X135857722Y-142903313D02*
X147956097Y-135918313D01*
%TD*%
M02*
