%TF.GenerationSoftware,KiCad,Pcbnew,10.0.4*%
%TF.CreationDate,2026-07-08T15:11:50+01:00*%
%TF.ProjectId,Blind_Clock,426c696e-645f-4436-9c6f-636b2e6b6963,rev?*%
%TF.SameCoordinates,Original*%
%TF.FileFunction,Copper,L2,Inr*%
%TF.FilePolarity,Positive*%
%FSLAX46Y46*%
G04 Gerber Fmt 4.6, Leading zero omitted, Abs format (unit mm)*
G04 Created by KiCad (PCBNEW 10.0.4) date 2026-07-08 15:11:50*
%MOMM*%
%LPD*%
G01*
G04 APERTURE LIST*
G04 Aperture macros list*
%AMRoundRect*
0 Rectangle with rounded corners*
0 $1 Rounding radius*
0 $2 $3 $4 $5 $6 $7 $8 $9 X,Y pos of 4 corners*
0 Add a 4 corners polygon primitive as box body*
4,1,4,$2,$3,$4,$5,$6,$7,$8,$9,$2,$3,0*
0 Add four circle primitives for the rounded corners*
1,1,$1+$1,$2,$3*
1,1,$1+$1,$4,$5*
1,1,$1+$1,$6,$7*
1,1,$1+$1,$8,$9*
0 Add four rect primitives between the rounded corners*
20,1,$1+$1,$2,$3,$4,$5,0*
20,1,$1+$1,$4,$5,$6,$7,0*
20,1,$1+$1,$6,$7,$8,$9,0*
20,1,$1+$1,$8,$9,$2,$3,0*%
G04 Aperture macros list end*
%TA.AperFunction,ComponentPad*%
%ADD10C,1.600000*%
%TD*%
%TA.AperFunction,ComponentPad*%
%ADD11R,1.600000X1.600000*%
%TD*%
%TA.AperFunction,ComponentPad*%
%ADD12RoundRect,0.250000X-0.550000X0.550000X-0.550000X-0.550000X0.550000X-0.550000X0.550000X0.550000X0*%
%TD*%
%TA.AperFunction,ComponentPad*%
%ADD13R,2.000000X2.000000*%
%TD*%
%TA.AperFunction,ComponentPad*%
%ADD14O,1.600000X2.000000*%
%TD*%
%TA.AperFunction,ComponentPad*%
%ADD15C,2.200000*%
%TD*%
%TA.AperFunction,ComponentPad*%
%ADD16R,1.700000X1.700000*%
%TD*%
%TA.AperFunction,ComponentPad*%
%ADD17C,1.700000*%
%TD*%
%TA.AperFunction,Conductor*%
%ADD18C,0.200000*%
%TD*%
G04 APERTURE END LIST*
D10*
%TO.N,Buzz*%
%TO.C,BZ1*%
X114400000Y-132000000D03*
D11*
%TO.N,3.3v*%
X122000000Y-132000000D03*
%TD*%
D12*
%TO.N,Row 0*%
%TO.C,D3*%
X105800000Y-114190000D03*
D10*
%TO.N,Net-(D3-A)*%
X105800000Y-121810000D03*
%TD*%
D12*
%TO.N,Row 0*%
%TO.C,D2*%
X102250000Y-114190000D03*
D10*
%TO.N,Net-(D2-A)*%
X102250000Y-121810000D03*
%TD*%
D12*
%TO.N,Row 2*%
%TO.C,D9*%
X127100000Y-114190000D03*
D10*
%TO.N,Net-(D9-A)*%
X127100000Y-121810000D03*
%TD*%
D12*
%TO.N,Row 1*%
%TO.C,D4*%
X109350000Y-114190000D03*
D10*
%TO.N,Net-(D4-A)*%
X109350000Y-121810000D03*
%TD*%
D12*
%TO.N,Row 1*%
%TO.C,D6*%
X116450000Y-114190000D03*
D10*
%TO.N,Net-(D6-A)*%
X116450000Y-121810000D03*
%TD*%
D12*
%TO.N,Row 2*%
%TO.C,D7*%
X120000000Y-114190000D03*
D10*
%TO.N,Net-(D7-A)*%
X120000000Y-121810000D03*
%TD*%
D12*
%TO.N,Row 0*%
%TO.C,D1*%
X98700000Y-114190000D03*
D10*
%TO.N,Net-(D1-A)*%
X98700000Y-121810000D03*
%TD*%
D12*
%TO.N,Row 3*%
%TO.C,D11*%
X134200000Y-114190000D03*
D10*
%TO.N,Net-(D11-A)*%
X134200000Y-121810000D03*
%TD*%
D12*
%TO.N,Row 3*%
%TO.C,D10*%
X130650000Y-114190000D03*
D10*
%TO.N,Net-(D10-A)*%
X130650000Y-121810000D03*
%TD*%
%TO.N,Net-(D12-A)*%
%TO.C,D12*%
X137750000Y-121810000D03*
D12*
%TO.N,Row 3*%
X137750000Y-114190000D03*
%TD*%
D13*
%TO.N,unconnected-(U1-EN-Pad1)*%
%TO.C,U1*%
X110600000Y-61700000D03*
D14*
%TO.N,Row 0*%
X113140000Y-61700000D03*
%TO.N,Col 2*%
X115680000Y-61700000D03*
%TO.N,Col 1*%
X118220000Y-61700000D03*
%TO.N,Col 0*%
X120760000Y-61700000D03*
%TO.N,Row 1*%
X123300000Y-61700000D03*
%TO.N,Row 2*%
X125840000Y-61700000D03*
%TO.N,3.3v*%
X128380000Y-61700000D03*
%TO.N,unconnected-(U1-VBus-Pad9)*%
X128380000Y-84560000D03*
%TO.N,GND*%
X125840000Y-84560000D03*
%TO.N,Row 3*%
X123300000Y-84560000D03*
%TO.N,Buzz*%
X120760000Y-84560000D03*
%TO.N,RST*%
X118220000Y-84560000D03*
%TO.N,DC*%
X115680000Y-84560000D03*
%TO.N,RDA*%
X113140000Y-84560000D03*
%TO.N,SCL*%
X110600000Y-84560000D03*
%TD*%
D15*
%TO.N,Col 2*%
%TO.C,SW12*%
X90260295Y-46870591D03*
%TO.N,Net-(D12-A)*%
X86031034Y-52245296D03*
%TD*%
%TO.N,Col 1*%
%TO.C,SW11*%
X68410591Y-66860886D03*
%TO.N,Net-(D11-A)*%
X67435296Y-73630147D03*
%TD*%
%TO.N,Col 0*%
%TO.C,SW10*%
X59920000Y-96540000D03*
%TO.N,Net-(D10-A)*%
X62460001Y-102890000D03*
%TD*%
%TO.N,Col 2*%
%TO.C,SW8*%
X86659705Y-148129409D03*
%TO.N,Net-(D6-A)*%
X93428966Y-149104704D03*
%TD*%
%TO.N,Col 2*%
%TO.C,SW7*%
X115540000Y-157080000D03*
%TO.N,Net-(D3-A)*%
X121889999Y-154540000D03*
%TD*%
%TO.N,Col 1*%
%TO.C,SW4*%
X174540001Y-102350000D03*
%TO.N,Net-(D2-A)*%
X172000000Y-96000000D03*
%TD*%
%TO.N,Col 0*%
%TO.C,SW3*%
X168209409Y-73059114D03*
%TO.N,Net-(D7-A)*%
X162834704Y-68829853D03*
%TD*%
%TO.N,Col 0*%
%TO.C,SW2*%
X148739705Y-48870591D03*
%TO.N,Net-(D4-A)*%
X141970444Y-47895296D03*
%TD*%
%TO.N,Col 0*%
%TO.C,SW1*%
X119620000Y-40920000D03*
%TO.N,Net-(D1-A)*%
X113270000Y-43460000D03*
%TD*%
D16*
%TO.N,GND*%
%TO.C,J1*%
X85000000Y-108620000D03*
D17*
%TO.N,3.3v*%
X85000000Y-106080000D03*
%TO.N,SCL*%
X85000000Y-103540000D03*
%TO.N,RDA*%
X85000000Y-101000000D03*
%TO.N,RST*%
X85000000Y-98460000D03*
%TO.N,DC*%
X85000000Y-95920000D03*
%TO.N,GND*%
X85000000Y-93380000D03*
%TO.N,3.3v*%
X85000000Y-90840000D03*
%TD*%
D15*
%TO.N,Col 2*%
%TO.C,SW9*%
X65870591Y-126739705D03*
%TO.N,Net-(D9-A)*%
X71245296Y-130968966D03*
%TD*%
%TO.N,Col 1*%
%TO.C,SW5*%
X166024705Y-130769262D03*
%TO.N,Net-(D5-A)*%
X167000000Y-124000000D03*
%TD*%
%TO.N,Col 1*%
%TO.C,SW6*%
X145739705Y-151129409D03*
%TO.N,Net-(D8-A)*%
X149968966Y-145754705D03*
%TD*%
D12*
%TO.N,Row 1*%
%TO.C,D5*%
X112900000Y-114190000D03*
D10*
%TO.N,Net-(D5-A)*%
X112900000Y-121810000D03*
%TD*%
D12*
%TO.N,Row 2*%
%TO.C,D8*%
X123550000Y-114190000D03*
D10*
%TO.N,Net-(D8-A)*%
X123550000Y-121810000D03*
%TD*%
%TO.N,Col 1*%
D18*
X61880102Y-73391375D02*
X68410591Y-66860886D01*
X61880102Y-101490000D02*
X61880102Y-73391375D01*
X61060001Y-102310101D02*
X61880102Y-101490000D01*
X61060001Y-103469899D02*
X61060001Y-102310101D01*
X62950102Y-105360000D02*
X61060001Y-103469899D01*
X79579339Y-105360000D02*
X62950102Y-105360000D01*
X81883654Y-103055685D02*
X79579339Y-105360000D01*
X81883654Y-78401931D02*
X81883654Y-103055685D01*
X99885585Y-60400000D02*
X81883654Y-78401931D01*
X116920000Y-60400000D02*
X99885585Y-60400000D01*
X118220000Y-61700000D02*
X116920000Y-60400000D01*
%TO.N,Net-(D12-A)*%
X86031034Y-52031034D02*
X86000000Y-52000000D01*
X86031034Y-52031034D02*
X86031034Y-52245296D01*
%TO.N,Net-(D11-A)*%
X67369853Y-73630147D02*
X67000000Y-74000000D01*
X67435296Y-73630147D02*
X67369853Y-73630147D01*
%TO.N,Col 1*%
X70800296Y-69250591D02*
X68410591Y-66860886D01*
X87052353Y-69250591D02*
X70800296Y-69250591D01*
X111502944Y-44800000D02*
X87052353Y-69250591D01*
X112497056Y-44800000D02*
X111502944Y-44800000D01*
X113200000Y-45502944D02*
X112497056Y-44800000D01*
X113651269Y-45502944D02*
X113200000Y-45502944D01*
X117234213Y-41920000D02*
X113651269Y-45502944D01*
X117234213Y-41325888D02*
X117234213Y-41920000D01*
X119040101Y-39520000D02*
X117234213Y-41325888D01*
X169609409Y-67760396D02*
X141369013Y-39520000D01*
X169609409Y-73639013D02*
X169609409Y-67760396D01*
X141369013Y-39520000D02*
X119040101Y-39520000D01*
X168789308Y-74459114D02*
X169609409Y-73639013D01*
X165989308Y-74459114D02*
X168789308Y-74459114D01*
X138098422Y-102350000D02*
X165989308Y-74459114D01*
X174540001Y-102350000D02*
X138098422Y-102350000D01*
%TO.N,Net-(D10-A)*%
X131750000Y-120710000D02*
X130650000Y-121810000D01*
X131750000Y-100866007D02*
X131750000Y-120710000D01*
X161566598Y-71049409D02*
X131750000Y-100866007D01*
X162595047Y-71049409D02*
X161566598Y-71049409D01*
X164234704Y-69409752D02*
X162595047Y-71049409D01*
X164234704Y-68179657D02*
X164234704Y-69409752D01*
X138375047Y-42320000D02*
X164234704Y-68179657D01*
X117399899Y-42320000D02*
X138375047Y-42320000D01*
X81483654Y-78236245D02*
X117399899Y-42320000D01*
X81483654Y-102890000D02*
X81483654Y-78236245D01*
X62460001Y-102890000D02*
X81483654Y-102890000D01*
%TO.N,Col 2*%
X84523654Y-102150000D02*
X85476346Y-102150000D01*
X85476346Y-102150000D02*
X115680000Y-71946346D01*
X115680000Y-71946346D02*
X115680000Y-61700000D01*
X65870591Y-120803063D02*
X84523654Y-102150000D01*
X65870591Y-126739705D02*
X65870591Y-120803063D01*
X65870591Y-128139845D02*
X65870591Y-126739705D01*
X85860155Y-148129409D02*
X65870591Y-128139845D01*
X86659705Y-148129409D02*
X85860155Y-148129409D01*
%TO.N,Net-(D4-A)*%
X108250000Y-120710000D02*
X109350000Y-121810000D01*
X90135399Y-132368966D02*
X101794365Y-120710000D01*
X70665397Y-132368966D02*
X90135399Y-132368966D01*
X69000000Y-125616008D02*
X69000000Y-130703569D01*
X70566598Y-124049410D02*
X69000000Y-125616008D01*
X72513402Y-124049410D02*
X70566598Y-124049410D01*
X104700000Y-91862812D02*
X72513402Y-124049410D01*
X104700000Y-87135635D02*
X104700000Y-91862812D01*
X69000000Y-130703569D02*
X70665397Y-132368966D01*
X101794365Y-120710000D02*
X108250000Y-120710000D01*
X141970444Y-49865191D02*
X104700000Y-87135635D01*
X141970444Y-47895296D02*
X141970444Y-49865191D01*
%TO.N,Net-(D7-A)*%
X124005635Y-120710000D02*
X121100000Y-120710000D01*
X127142792Y-123322843D02*
X126618478Y-123322843D01*
X126618478Y-123322843D02*
X124005635Y-120710000D01*
X128200000Y-103464557D02*
X128200000Y-122265635D01*
X162834704Y-68829853D02*
X128200000Y-103464557D01*
X128200000Y-122265635D02*
X127142792Y-123322843D01*
X121100000Y-120710000D02*
X120000000Y-121810000D01*
%TO.N,Net-(D2-A)*%
X102250000Y-137596664D02*
X102250000Y-121810000D01*
X91628966Y-148217698D02*
X102250000Y-137596664D01*
X91628966Y-149850288D02*
X91628966Y-148217698D01*
X96718677Y-154940000D02*
X91628966Y-149850288D01*
X120310100Y-154940000D02*
X96718677Y-154940000D01*
X121310100Y-155940000D02*
X120310100Y-154940000D01*
X143050434Y-155940000D02*
X121310100Y-155940000D01*
X175940001Y-123050433D02*
X143050434Y-155940000D01*
X175940001Y-99940001D02*
X175940001Y-123050433D01*
X172000000Y-96000000D02*
X175940001Y-99940001D01*
%TO.N,Net-(D9-A)*%
X125600000Y-120310000D02*
X127100000Y-121810000D01*
X81904262Y-120310000D02*
X125600000Y-120310000D01*
X71245296Y-130968966D02*
X81904262Y-120310000D01*
%TO.N,Net-(D3-A)*%
X105800000Y-134612350D02*
X105800000Y-121810000D01*
X92028966Y-149684603D02*
X92028966Y-148383384D01*
X92028966Y-148383384D02*
X105800000Y-134612350D01*
X96884363Y-154540000D02*
X92028966Y-149684603D01*
X121889999Y-154540000D02*
X96884363Y-154540000D01*
%TO.N,Net-(D6-A)*%
X112444365Y-120710000D02*
X115350000Y-120710000D01*
X111800000Y-121354365D02*
X112444365Y-120710000D01*
X93428966Y-147549070D02*
X111800000Y-129178036D01*
X115350000Y-120710000D02*
X116450000Y-121810000D01*
X93428966Y-149104704D02*
X93428966Y-147549070D01*
X111800000Y-129178036D02*
X111800000Y-121354365D01*
%TO.N,Net-(D5-A)*%
X118490000Y-127400000D02*
X112900000Y-121810000D01*
X147749410Y-144486598D02*
X130662812Y-127400000D01*
X147749410Y-145749410D02*
X147749410Y-144486598D01*
X149154705Y-147154705D02*
X147749410Y-145749410D01*
X150548865Y-147154705D02*
X149154705Y-147154705D01*
X151368966Y-146334604D02*
X150548865Y-147154705D01*
X130662812Y-127400000D02*
X118490000Y-127400000D01*
X151368966Y-143046909D02*
X151368966Y-146334604D01*
X167000000Y-127415875D02*
X151368966Y-143046909D01*
X167000000Y-124000000D02*
X167000000Y-127415875D01*
%TO.N,Net-(D8-A)*%
X128740000Y-127000000D02*
X123550000Y-121810000D01*
X131214261Y-127000000D02*
X128740000Y-127000000D01*
X149968966Y-145754705D02*
X131214261Y-127000000D01*
%TO.N,Col 1*%
X166024705Y-132400043D02*
X147295339Y-151129409D01*
X147295339Y-151129409D02*
X145739705Y-151129409D01*
X166024705Y-130769262D02*
X166024705Y-132400043D01*
X174540001Y-122253966D02*
X166024705Y-130769262D01*
X174540001Y-102350000D02*
X174540001Y-122253966D01*
%TO.N,Col 0*%
X168209409Y-68340295D02*
X148739705Y-48870591D01*
X168209409Y-73059114D02*
X168209409Y-68340295D01*
X140789114Y-40920000D02*
X119620000Y-40920000D01*
X148739705Y-48870591D02*
X140789114Y-40920000D01*
%TO.N,Col 2*%
X95610296Y-157080000D02*
X86659705Y-148129409D01*
X115540000Y-157080000D02*
X95610296Y-157080000D01*
%TD*%
M02*
