M48
; DRILL file KiCad 10.0.4 date 2026-07-08T15:11:56
; FORMAT={-:-/ absolute / metric / decimal}
; #@! TF.CreationDate,2026-07-08T15:11:56+01:00
; #@! TF.GenerationSoftware,Kicad,Pcbnew,10.0.4
; #@! TF.FileFunction,Plated,1,4,PTH
FMAT,2
METRIC
; #@! TA.AperFunction,Plated,PTH,ComponentDrill
T1C0.800
; #@! TA.AperFunction,Plated,PTH,ComponentDrill
T2C0.900
; #@! TA.AperFunction,Plated,PTH,ComponentDrill
T3C1.000
; #@! TA.AperFunction,Plated,PTH,ComponentDrill
T4C1.500
%
G90
G05
T1
X98.7Y-114.19
X98.7Y-121.81
X102.25Y-114.19
X102.25Y-121.81
X105.8Y-114.19
X105.8Y-121.81
X109.35Y-114.19
X109.35Y-121.81
X112.9Y-114.19
X112.9Y-121.81
X114.4Y-132.0
X116.45Y-114.19
X116.45Y-121.81
X120.0Y-114.19
X120.0Y-121.81
X122.0Y-132.0
X123.55Y-114.19
X123.55Y-121.81
X127.1Y-114.19
X127.1Y-121.81
X130.65Y-114.19
X130.65Y-121.81
X134.2Y-114.19
X134.2Y-121.81
X137.75Y-114.19
X137.75Y-121.81
T2
X110.6Y-61.7
X110.6Y-84.56
X113.14Y-61.7
X113.14Y-84.56
X115.68Y-61.7
X115.68Y-84.56
X118.22Y-61.7
X118.22Y-84.56
X120.76Y-61.7
X120.76Y-84.56
X123.3Y-61.7
X123.3Y-84.56
X125.84Y-61.7
X125.84Y-84.56
X128.38Y-61.7
X128.38Y-84.56
T3
X85.0Y-90.84
X85.0Y-93.38
X85.0Y-95.92
X85.0Y-98.46
X85.0Y-101.0
X85.0Y-103.54
X85.0Y-106.08
X85.0Y-108.62
T4
X59.92Y-96.54
X62.46Y-102.89
X65.871Y-126.74
X67.435Y-73.63
X68.411Y-66.861
X71.245Y-130.969
X86.031Y-52.245
X86.66Y-148.129
X90.26Y-46.871
X93.429Y-149.105
X113.27Y-43.46
X115.54Y-157.08
X119.62Y-40.92
X121.89Y-154.54
X141.97Y-47.895
X145.74Y-151.129
X148.74Y-48.871
X149.969Y-145.755
X162.835Y-68.83
X166.025Y-130.769
X167.0Y-124.0
X168.209Y-73.059
X172.0Y-96.0
X174.54Y-102.35
M30
