%TF.GenerationSoftware,KiCad,Pcbnew,10.0.4*%
%TF.CreationDate,2026-07-08T15:11:50+01:00*%
%TF.ProjectId,Blind_Clock,426c696e-645f-4436-9c6f-636b2e6b6963,rev?*%
%TF.SameCoordinates,Original*%
%TF.FileFunction,Legend,Bot*%
%TF.FilePolarity,Positive*%
%FSLAX46Y46*%
G04 Gerber Fmt 4.6, Leading zero omitted, Abs format (unit mm)*
G04 Created by KiCad (PCBNEW 10.0.4) date 2026-07-08 15:11:50*
%MOMM*%
%LPD*%
G01*
G04 APERTURE LIST*
%ADD10C,0.150000*%
%ADD11C,0.120000*%
G04 APERTURE END LIST*
D10*
X119080952Y-124931009D02*
X118938095Y-124978628D01*
X118938095Y-124978628D02*
X118890476Y-125026247D01*
X118890476Y-125026247D02*
X118842857Y-125121485D01*
X118842857Y-125121485D02*
X118842857Y-125264342D01*
X118842857Y-125264342D02*
X118890476Y-125359580D01*
X118890476Y-125359580D02*
X118938095Y-125407200D01*
X118938095Y-125407200D02*
X119033333Y-125454819D01*
X119033333Y-125454819D02*
X119414285Y-125454819D01*
X119414285Y-125454819D02*
X119414285Y-124454819D01*
X119414285Y-124454819D02*
X119080952Y-124454819D01*
X119080952Y-124454819D02*
X118985714Y-124502438D01*
X118985714Y-124502438D02*
X118938095Y-124550057D01*
X118938095Y-124550057D02*
X118890476Y-124645295D01*
X118890476Y-124645295D02*
X118890476Y-124740533D01*
X118890476Y-124740533D02*
X118938095Y-124835771D01*
X118938095Y-124835771D02*
X118985714Y-124883390D01*
X118985714Y-124883390D02*
X119080952Y-124931009D01*
X119080952Y-124931009D02*
X119414285Y-124931009D01*
X118509523Y-124454819D02*
X117842857Y-124454819D01*
X117842857Y-124454819D02*
X118509523Y-125454819D01*
X118509523Y-125454819D02*
X117842857Y-125454819D01*
X116938095Y-125454819D02*
X117509523Y-125454819D01*
X117223809Y-125454819D02*
X117223809Y-124454819D01*
X117223809Y-124454819D02*
X117319047Y-124597676D01*
X117319047Y-124597676D02*
X117414285Y-124692914D01*
X117414285Y-124692914D02*
X117509523Y-124740533D01*
X123580951Y-132073866D02*
X122819047Y-132073866D01*
X123199999Y-132454819D02*
X123199999Y-131692914D01*
X104134819Y-117261905D02*
X103134819Y-117261905D01*
X103134819Y-117261905D02*
X103134819Y-117500000D01*
X103134819Y-117500000D02*
X103182438Y-117642857D01*
X103182438Y-117642857D02*
X103277676Y-117738095D01*
X103277676Y-117738095D02*
X103372914Y-117785714D01*
X103372914Y-117785714D02*
X103563390Y-117833333D01*
X103563390Y-117833333D02*
X103706247Y-117833333D01*
X103706247Y-117833333D02*
X103896723Y-117785714D01*
X103896723Y-117785714D02*
X103991961Y-117738095D01*
X103991961Y-117738095D02*
X104087200Y-117642857D01*
X104087200Y-117642857D02*
X104134819Y-117500000D01*
X104134819Y-117500000D02*
X104134819Y-117261905D01*
X103134819Y-118166667D02*
X103134819Y-118785714D01*
X103134819Y-118785714D02*
X103515771Y-118452381D01*
X103515771Y-118452381D02*
X103515771Y-118595238D01*
X103515771Y-118595238D02*
X103563390Y-118690476D01*
X103563390Y-118690476D02*
X103611009Y-118738095D01*
X103611009Y-118738095D02*
X103706247Y-118785714D01*
X103706247Y-118785714D02*
X103944342Y-118785714D01*
X103944342Y-118785714D02*
X104039580Y-118738095D01*
X104039580Y-118738095D02*
X104087200Y-118690476D01*
X104087200Y-118690476D02*
X104134819Y-118595238D01*
X104134819Y-118595238D02*
X104134819Y-118309524D01*
X104134819Y-118309524D02*
X104087200Y-118214286D01*
X104087200Y-118214286D02*
X104039580Y-118166667D01*
X104454819Y-113928095D02*
X103454819Y-113928095D01*
X104454819Y-114499523D02*
X103883390Y-114070952D01*
X103454819Y-114499523D02*
X104026247Y-113928095D01*
X100584819Y-117261905D02*
X99584819Y-117261905D01*
X99584819Y-117261905D02*
X99584819Y-117500000D01*
X99584819Y-117500000D02*
X99632438Y-117642857D01*
X99632438Y-117642857D02*
X99727676Y-117738095D01*
X99727676Y-117738095D02*
X99822914Y-117785714D01*
X99822914Y-117785714D02*
X100013390Y-117833333D01*
X100013390Y-117833333D02*
X100156247Y-117833333D01*
X100156247Y-117833333D02*
X100346723Y-117785714D01*
X100346723Y-117785714D02*
X100441961Y-117738095D01*
X100441961Y-117738095D02*
X100537200Y-117642857D01*
X100537200Y-117642857D02*
X100584819Y-117500000D01*
X100584819Y-117500000D02*
X100584819Y-117261905D01*
X99680057Y-118214286D02*
X99632438Y-118261905D01*
X99632438Y-118261905D02*
X99584819Y-118357143D01*
X99584819Y-118357143D02*
X99584819Y-118595238D01*
X99584819Y-118595238D02*
X99632438Y-118690476D01*
X99632438Y-118690476D02*
X99680057Y-118738095D01*
X99680057Y-118738095D02*
X99775295Y-118785714D01*
X99775295Y-118785714D02*
X99870533Y-118785714D01*
X99870533Y-118785714D02*
X100013390Y-118738095D01*
X100013390Y-118738095D02*
X100584819Y-118166667D01*
X100584819Y-118166667D02*
X100584819Y-118785714D01*
X100904819Y-113928095D02*
X99904819Y-113928095D01*
X100904819Y-114499523D02*
X100333390Y-114070952D01*
X99904819Y-114499523D02*
X100476247Y-113928095D01*
X125434819Y-117261905D02*
X124434819Y-117261905D01*
X124434819Y-117261905D02*
X124434819Y-117500000D01*
X124434819Y-117500000D02*
X124482438Y-117642857D01*
X124482438Y-117642857D02*
X124577676Y-117738095D01*
X124577676Y-117738095D02*
X124672914Y-117785714D01*
X124672914Y-117785714D02*
X124863390Y-117833333D01*
X124863390Y-117833333D02*
X125006247Y-117833333D01*
X125006247Y-117833333D02*
X125196723Y-117785714D01*
X125196723Y-117785714D02*
X125291961Y-117738095D01*
X125291961Y-117738095D02*
X125387200Y-117642857D01*
X125387200Y-117642857D02*
X125434819Y-117500000D01*
X125434819Y-117500000D02*
X125434819Y-117261905D01*
X125434819Y-118309524D02*
X125434819Y-118500000D01*
X125434819Y-118500000D02*
X125387200Y-118595238D01*
X125387200Y-118595238D02*
X125339580Y-118642857D01*
X125339580Y-118642857D02*
X125196723Y-118738095D01*
X125196723Y-118738095D02*
X125006247Y-118785714D01*
X125006247Y-118785714D02*
X124625295Y-118785714D01*
X124625295Y-118785714D02*
X124530057Y-118738095D01*
X124530057Y-118738095D02*
X124482438Y-118690476D01*
X124482438Y-118690476D02*
X124434819Y-118595238D01*
X124434819Y-118595238D02*
X124434819Y-118404762D01*
X124434819Y-118404762D02*
X124482438Y-118309524D01*
X124482438Y-118309524D02*
X124530057Y-118261905D01*
X124530057Y-118261905D02*
X124625295Y-118214286D01*
X124625295Y-118214286D02*
X124863390Y-118214286D01*
X124863390Y-118214286D02*
X124958628Y-118261905D01*
X124958628Y-118261905D02*
X125006247Y-118309524D01*
X125006247Y-118309524D02*
X125053866Y-118404762D01*
X125053866Y-118404762D02*
X125053866Y-118595238D01*
X125053866Y-118595238D02*
X125006247Y-118690476D01*
X125006247Y-118690476D02*
X124958628Y-118738095D01*
X124958628Y-118738095D02*
X124863390Y-118785714D01*
X125754819Y-113928095D02*
X124754819Y-113928095D01*
X125754819Y-114499523D02*
X125183390Y-114070952D01*
X124754819Y-114499523D02*
X125326247Y-113928095D01*
X107684819Y-117261905D02*
X106684819Y-117261905D01*
X106684819Y-117261905D02*
X106684819Y-117500000D01*
X106684819Y-117500000D02*
X106732438Y-117642857D01*
X106732438Y-117642857D02*
X106827676Y-117738095D01*
X106827676Y-117738095D02*
X106922914Y-117785714D01*
X106922914Y-117785714D02*
X107113390Y-117833333D01*
X107113390Y-117833333D02*
X107256247Y-117833333D01*
X107256247Y-117833333D02*
X107446723Y-117785714D01*
X107446723Y-117785714D02*
X107541961Y-117738095D01*
X107541961Y-117738095D02*
X107637200Y-117642857D01*
X107637200Y-117642857D02*
X107684819Y-117500000D01*
X107684819Y-117500000D02*
X107684819Y-117261905D01*
X107018152Y-118690476D02*
X107684819Y-118690476D01*
X106637200Y-118452381D02*
X107351485Y-118214286D01*
X107351485Y-118214286D02*
X107351485Y-118833333D01*
X108004819Y-113928095D02*
X107004819Y-113928095D01*
X108004819Y-114499523D02*
X107433390Y-114070952D01*
X107004819Y-114499523D02*
X107576247Y-113928095D01*
X114784819Y-117261905D02*
X113784819Y-117261905D01*
X113784819Y-117261905D02*
X113784819Y-117500000D01*
X113784819Y-117500000D02*
X113832438Y-117642857D01*
X113832438Y-117642857D02*
X113927676Y-117738095D01*
X113927676Y-117738095D02*
X114022914Y-117785714D01*
X114022914Y-117785714D02*
X114213390Y-117833333D01*
X114213390Y-117833333D02*
X114356247Y-117833333D01*
X114356247Y-117833333D02*
X114546723Y-117785714D01*
X114546723Y-117785714D02*
X114641961Y-117738095D01*
X114641961Y-117738095D02*
X114737200Y-117642857D01*
X114737200Y-117642857D02*
X114784819Y-117500000D01*
X114784819Y-117500000D02*
X114784819Y-117261905D01*
X113784819Y-118690476D02*
X113784819Y-118500000D01*
X113784819Y-118500000D02*
X113832438Y-118404762D01*
X113832438Y-118404762D02*
X113880057Y-118357143D01*
X113880057Y-118357143D02*
X114022914Y-118261905D01*
X114022914Y-118261905D02*
X114213390Y-118214286D01*
X114213390Y-118214286D02*
X114594342Y-118214286D01*
X114594342Y-118214286D02*
X114689580Y-118261905D01*
X114689580Y-118261905D02*
X114737200Y-118309524D01*
X114737200Y-118309524D02*
X114784819Y-118404762D01*
X114784819Y-118404762D02*
X114784819Y-118595238D01*
X114784819Y-118595238D02*
X114737200Y-118690476D01*
X114737200Y-118690476D02*
X114689580Y-118738095D01*
X114689580Y-118738095D02*
X114594342Y-118785714D01*
X114594342Y-118785714D02*
X114356247Y-118785714D01*
X114356247Y-118785714D02*
X114261009Y-118738095D01*
X114261009Y-118738095D02*
X114213390Y-118690476D01*
X114213390Y-118690476D02*
X114165771Y-118595238D01*
X114165771Y-118595238D02*
X114165771Y-118404762D01*
X114165771Y-118404762D02*
X114213390Y-118309524D01*
X114213390Y-118309524D02*
X114261009Y-118261905D01*
X114261009Y-118261905D02*
X114356247Y-118214286D01*
X115104819Y-113928095D02*
X114104819Y-113928095D01*
X115104819Y-114499523D02*
X114533390Y-114070952D01*
X114104819Y-114499523D02*
X114676247Y-113928095D01*
X118334819Y-117261905D02*
X117334819Y-117261905D01*
X117334819Y-117261905D02*
X117334819Y-117500000D01*
X117334819Y-117500000D02*
X117382438Y-117642857D01*
X117382438Y-117642857D02*
X117477676Y-117738095D01*
X117477676Y-117738095D02*
X117572914Y-117785714D01*
X117572914Y-117785714D02*
X117763390Y-117833333D01*
X117763390Y-117833333D02*
X117906247Y-117833333D01*
X117906247Y-117833333D02*
X118096723Y-117785714D01*
X118096723Y-117785714D02*
X118191961Y-117738095D01*
X118191961Y-117738095D02*
X118287200Y-117642857D01*
X118287200Y-117642857D02*
X118334819Y-117500000D01*
X118334819Y-117500000D02*
X118334819Y-117261905D01*
X117334819Y-118166667D02*
X117334819Y-118833333D01*
X117334819Y-118833333D02*
X118334819Y-118404762D01*
X118654819Y-113928095D02*
X117654819Y-113928095D01*
X118654819Y-114499523D02*
X118083390Y-114070952D01*
X117654819Y-114499523D02*
X118226247Y-113928095D01*
X97034819Y-117261905D02*
X96034819Y-117261905D01*
X96034819Y-117261905D02*
X96034819Y-117500000D01*
X96034819Y-117500000D02*
X96082438Y-117642857D01*
X96082438Y-117642857D02*
X96177676Y-117738095D01*
X96177676Y-117738095D02*
X96272914Y-117785714D01*
X96272914Y-117785714D02*
X96463390Y-117833333D01*
X96463390Y-117833333D02*
X96606247Y-117833333D01*
X96606247Y-117833333D02*
X96796723Y-117785714D01*
X96796723Y-117785714D02*
X96891961Y-117738095D01*
X96891961Y-117738095D02*
X96987200Y-117642857D01*
X96987200Y-117642857D02*
X97034819Y-117500000D01*
X97034819Y-117500000D02*
X97034819Y-117261905D01*
X97034819Y-118785714D02*
X97034819Y-118214286D01*
X97034819Y-118500000D02*
X96034819Y-118500000D01*
X96034819Y-118500000D02*
X96177676Y-118404762D01*
X96177676Y-118404762D02*
X96272914Y-118309524D01*
X96272914Y-118309524D02*
X96320533Y-118214286D01*
X97354819Y-113928095D02*
X96354819Y-113928095D01*
X97354819Y-114499523D02*
X96783390Y-114070952D01*
X96354819Y-114499523D02*
X96926247Y-113928095D01*
X132534819Y-116785714D02*
X131534819Y-116785714D01*
X131534819Y-116785714D02*
X131534819Y-117023809D01*
X131534819Y-117023809D02*
X131582438Y-117166666D01*
X131582438Y-117166666D02*
X131677676Y-117261904D01*
X131677676Y-117261904D02*
X131772914Y-117309523D01*
X131772914Y-117309523D02*
X131963390Y-117357142D01*
X131963390Y-117357142D02*
X132106247Y-117357142D01*
X132106247Y-117357142D02*
X132296723Y-117309523D01*
X132296723Y-117309523D02*
X132391961Y-117261904D01*
X132391961Y-117261904D02*
X132487200Y-117166666D01*
X132487200Y-117166666D02*
X132534819Y-117023809D01*
X132534819Y-117023809D02*
X132534819Y-116785714D01*
X132534819Y-118309523D02*
X132534819Y-117738095D01*
X132534819Y-118023809D02*
X131534819Y-118023809D01*
X131534819Y-118023809D02*
X131677676Y-117928571D01*
X131677676Y-117928571D02*
X131772914Y-117833333D01*
X131772914Y-117833333D02*
X131820533Y-117738095D01*
X132534819Y-119261904D02*
X132534819Y-118690476D01*
X132534819Y-118976190D02*
X131534819Y-118976190D01*
X131534819Y-118976190D02*
X131677676Y-118880952D01*
X131677676Y-118880952D02*
X131772914Y-118785714D01*
X131772914Y-118785714D02*
X131820533Y-118690476D01*
X132854819Y-113928095D02*
X131854819Y-113928095D01*
X132854819Y-114499523D02*
X132283390Y-114070952D01*
X131854819Y-114499523D02*
X132426247Y-113928095D01*
X128984819Y-116785714D02*
X127984819Y-116785714D01*
X127984819Y-116785714D02*
X127984819Y-117023809D01*
X127984819Y-117023809D02*
X128032438Y-117166666D01*
X128032438Y-117166666D02*
X128127676Y-117261904D01*
X128127676Y-117261904D02*
X128222914Y-117309523D01*
X128222914Y-117309523D02*
X128413390Y-117357142D01*
X128413390Y-117357142D02*
X128556247Y-117357142D01*
X128556247Y-117357142D02*
X128746723Y-117309523D01*
X128746723Y-117309523D02*
X128841961Y-117261904D01*
X128841961Y-117261904D02*
X128937200Y-117166666D01*
X128937200Y-117166666D02*
X128984819Y-117023809D01*
X128984819Y-117023809D02*
X128984819Y-116785714D01*
X128984819Y-118309523D02*
X128984819Y-117738095D01*
X128984819Y-118023809D02*
X127984819Y-118023809D01*
X127984819Y-118023809D02*
X128127676Y-117928571D01*
X128127676Y-117928571D02*
X128222914Y-117833333D01*
X128222914Y-117833333D02*
X128270533Y-117738095D01*
X127984819Y-118928571D02*
X127984819Y-119023809D01*
X127984819Y-119023809D02*
X128032438Y-119119047D01*
X128032438Y-119119047D02*
X128080057Y-119166666D01*
X128080057Y-119166666D02*
X128175295Y-119214285D01*
X128175295Y-119214285D02*
X128365771Y-119261904D01*
X128365771Y-119261904D02*
X128603866Y-119261904D01*
X128603866Y-119261904D02*
X128794342Y-119214285D01*
X128794342Y-119214285D02*
X128889580Y-119166666D01*
X128889580Y-119166666D02*
X128937200Y-119119047D01*
X128937200Y-119119047D02*
X128984819Y-119023809D01*
X128984819Y-119023809D02*
X128984819Y-118928571D01*
X128984819Y-118928571D02*
X128937200Y-118833333D01*
X128937200Y-118833333D02*
X128889580Y-118785714D01*
X128889580Y-118785714D02*
X128794342Y-118738095D01*
X128794342Y-118738095D02*
X128603866Y-118690476D01*
X128603866Y-118690476D02*
X128365771Y-118690476D01*
X128365771Y-118690476D02*
X128175295Y-118738095D01*
X128175295Y-118738095D02*
X128080057Y-118785714D01*
X128080057Y-118785714D02*
X128032438Y-118833333D01*
X128032438Y-118833333D02*
X127984819Y-118928571D01*
X129304819Y-113928095D02*
X128304819Y-113928095D01*
X129304819Y-114499523D02*
X128733390Y-114070952D01*
X128304819Y-114499523D02*
X128876247Y-113928095D01*
X136084819Y-116785714D02*
X135084819Y-116785714D01*
X135084819Y-116785714D02*
X135084819Y-117023809D01*
X135084819Y-117023809D02*
X135132438Y-117166666D01*
X135132438Y-117166666D02*
X135227676Y-117261904D01*
X135227676Y-117261904D02*
X135322914Y-117309523D01*
X135322914Y-117309523D02*
X135513390Y-117357142D01*
X135513390Y-117357142D02*
X135656247Y-117357142D01*
X135656247Y-117357142D02*
X135846723Y-117309523D01*
X135846723Y-117309523D02*
X135941961Y-117261904D01*
X135941961Y-117261904D02*
X136037200Y-117166666D01*
X136037200Y-117166666D02*
X136084819Y-117023809D01*
X136084819Y-117023809D02*
X136084819Y-116785714D01*
X136084819Y-118309523D02*
X136084819Y-117738095D01*
X136084819Y-118023809D02*
X135084819Y-118023809D01*
X135084819Y-118023809D02*
X135227676Y-117928571D01*
X135227676Y-117928571D02*
X135322914Y-117833333D01*
X135322914Y-117833333D02*
X135370533Y-117738095D01*
X135180057Y-118690476D02*
X135132438Y-118738095D01*
X135132438Y-118738095D02*
X135084819Y-118833333D01*
X135084819Y-118833333D02*
X135084819Y-119071428D01*
X135084819Y-119071428D02*
X135132438Y-119166666D01*
X135132438Y-119166666D02*
X135180057Y-119214285D01*
X135180057Y-119214285D02*
X135275295Y-119261904D01*
X135275295Y-119261904D02*
X135370533Y-119261904D01*
X135370533Y-119261904D02*
X135513390Y-119214285D01*
X135513390Y-119214285D02*
X136084819Y-118642857D01*
X136084819Y-118642857D02*
X136084819Y-119261904D01*
X136404819Y-113928095D02*
X135404819Y-113928095D01*
X136404819Y-114499523D02*
X135833390Y-114070952D01*
X135404819Y-114499523D02*
X135976247Y-113928095D01*
X120054819Y-72938095D02*
X120864342Y-72938095D01*
X120864342Y-72938095D02*
X120959580Y-72985714D01*
X120959580Y-72985714D02*
X121007200Y-73033333D01*
X121007200Y-73033333D02*
X121054819Y-73128571D01*
X121054819Y-73128571D02*
X121054819Y-73319047D01*
X121054819Y-73319047D02*
X121007200Y-73414285D01*
X121007200Y-73414285D02*
X120959580Y-73461904D01*
X120959580Y-73461904D02*
X120864342Y-73509523D01*
X120864342Y-73509523D02*
X120054819Y-73509523D01*
X121054819Y-74509523D02*
X121054819Y-73938095D01*
X121054819Y-74223809D02*
X120054819Y-74223809D01*
X120054819Y-74223809D02*
X120197676Y-74128571D01*
X120197676Y-74128571D02*
X120292914Y-74033333D01*
X120292914Y-74033333D02*
X120340533Y-73938095D01*
X111234819Y-117261905D02*
X110234819Y-117261905D01*
X110234819Y-117261905D02*
X110234819Y-117500000D01*
X110234819Y-117500000D02*
X110282438Y-117642857D01*
X110282438Y-117642857D02*
X110377676Y-117738095D01*
X110377676Y-117738095D02*
X110472914Y-117785714D01*
X110472914Y-117785714D02*
X110663390Y-117833333D01*
X110663390Y-117833333D02*
X110806247Y-117833333D01*
X110806247Y-117833333D02*
X110996723Y-117785714D01*
X110996723Y-117785714D02*
X111091961Y-117738095D01*
X111091961Y-117738095D02*
X111187200Y-117642857D01*
X111187200Y-117642857D02*
X111234819Y-117500000D01*
X111234819Y-117500000D02*
X111234819Y-117261905D01*
X110234819Y-118738095D02*
X110234819Y-118261905D01*
X110234819Y-118261905D02*
X110711009Y-118214286D01*
X110711009Y-118214286D02*
X110663390Y-118261905D01*
X110663390Y-118261905D02*
X110615771Y-118357143D01*
X110615771Y-118357143D02*
X110615771Y-118595238D01*
X110615771Y-118595238D02*
X110663390Y-118690476D01*
X110663390Y-118690476D02*
X110711009Y-118738095D01*
X110711009Y-118738095D02*
X110806247Y-118785714D01*
X110806247Y-118785714D02*
X111044342Y-118785714D01*
X111044342Y-118785714D02*
X111139580Y-118738095D01*
X111139580Y-118738095D02*
X111187200Y-118690476D01*
X111187200Y-118690476D02*
X111234819Y-118595238D01*
X111234819Y-118595238D02*
X111234819Y-118357143D01*
X111234819Y-118357143D02*
X111187200Y-118261905D01*
X111187200Y-118261905D02*
X111139580Y-118214286D01*
X111554819Y-113928095D02*
X110554819Y-113928095D01*
X111554819Y-114499523D02*
X110983390Y-114070952D01*
X110554819Y-114499523D02*
X111126247Y-113928095D01*
X121884819Y-117261905D02*
X120884819Y-117261905D01*
X120884819Y-117261905D02*
X120884819Y-117500000D01*
X120884819Y-117500000D02*
X120932438Y-117642857D01*
X120932438Y-117642857D02*
X121027676Y-117738095D01*
X121027676Y-117738095D02*
X121122914Y-117785714D01*
X121122914Y-117785714D02*
X121313390Y-117833333D01*
X121313390Y-117833333D02*
X121456247Y-117833333D01*
X121456247Y-117833333D02*
X121646723Y-117785714D01*
X121646723Y-117785714D02*
X121741961Y-117738095D01*
X121741961Y-117738095D02*
X121837200Y-117642857D01*
X121837200Y-117642857D02*
X121884819Y-117500000D01*
X121884819Y-117500000D02*
X121884819Y-117261905D01*
X121313390Y-118404762D02*
X121265771Y-118309524D01*
X121265771Y-118309524D02*
X121218152Y-118261905D01*
X121218152Y-118261905D02*
X121122914Y-118214286D01*
X121122914Y-118214286D02*
X121075295Y-118214286D01*
X121075295Y-118214286D02*
X120980057Y-118261905D01*
X120980057Y-118261905D02*
X120932438Y-118309524D01*
X120932438Y-118309524D02*
X120884819Y-118404762D01*
X120884819Y-118404762D02*
X120884819Y-118595238D01*
X120884819Y-118595238D02*
X120932438Y-118690476D01*
X120932438Y-118690476D02*
X120980057Y-118738095D01*
X120980057Y-118738095D02*
X121075295Y-118785714D01*
X121075295Y-118785714D02*
X121122914Y-118785714D01*
X121122914Y-118785714D02*
X121218152Y-118738095D01*
X121218152Y-118738095D02*
X121265771Y-118690476D01*
X121265771Y-118690476D02*
X121313390Y-118595238D01*
X121313390Y-118595238D02*
X121313390Y-118404762D01*
X121313390Y-118404762D02*
X121361009Y-118309524D01*
X121361009Y-118309524D02*
X121408628Y-118261905D01*
X121408628Y-118261905D02*
X121503866Y-118214286D01*
X121503866Y-118214286D02*
X121694342Y-118214286D01*
X121694342Y-118214286D02*
X121789580Y-118261905D01*
X121789580Y-118261905D02*
X121837200Y-118309524D01*
X121837200Y-118309524D02*
X121884819Y-118404762D01*
X121884819Y-118404762D02*
X121884819Y-118595238D01*
X121884819Y-118595238D02*
X121837200Y-118690476D01*
X121837200Y-118690476D02*
X121789580Y-118738095D01*
X121789580Y-118738095D02*
X121694342Y-118785714D01*
X121694342Y-118785714D02*
X121503866Y-118785714D01*
X121503866Y-118785714D02*
X121408628Y-118738095D01*
X121408628Y-118738095D02*
X121361009Y-118690476D01*
X121361009Y-118690476D02*
X121313390Y-118595238D01*
X122204819Y-113928095D02*
X121204819Y-113928095D01*
X122204819Y-114499523D02*
X121633390Y-114070952D01*
X121204819Y-114499523D02*
X121776247Y-113928095D01*
%TO.C,BZ1*%
D11*
X124200000Y-132000000D02*
G75*
G02*
X112200000Y-132000000I-6000000J0D01*
G01*
X112200000Y-132000000D02*
G75*
G02*
X124200000Y-132000000I6000000J0D01*
G01*
%TO.C,D3*%
X105800000Y-115230000D02*
X105800000Y-115880000D01*
X104680000Y-116480000D02*
X106920000Y-116480000D01*
X104680000Y-116600000D02*
X106920000Y-116600000D01*
X104680000Y-116720000D02*
X106920000Y-116720000D01*
X105800000Y-120770000D02*
X105800000Y-120120000D01*
X104680000Y-115880000D02*
X106920000Y-115880000D01*
X106920000Y-120120000D01*
X104680000Y-120120000D01*
X104680000Y-115880000D01*
%TO.C,D2*%
X102250000Y-115230000D02*
X102250000Y-115880000D01*
X101130000Y-116480000D02*
X103370000Y-116480000D01*
X101130000Y-116600000D02*
X103370000Y-116600000D01*
X101130000Y-116720000D02*
X103370000Y-116720000D01*
X102250000Y-120770000D02*
X102250000Y-120120000D01*
X101130000Y-115880000D02*
X103370000Y-115880000D01*
X103370000Y-120120000D01*
X101130000Y-120120000D01*
X101130000Y-115880000D01*
%TO.C,D9*%
X127100000Y-115230000D02*
X127100000Y-115880000D01*
X125980000Y-116480000D02*
X128220000Y-116480000D01*
X125980000Y-116600000D02*
X128220000Y-116600000D01*
X125980000Y-116720000D02*
X128220000Y-116720000D01*
X127100000Y-120770000D02*
X127100000Y-120120000D01*
X125980000Y-115880000D02*
X128220000Y-115880000D01*
X128220000Y-120120000D01*
X125980000Y-120120000D01*
X125980000Y-115880000D01*
%TO.C,D4*%
X109350000Y-115230000D02*
X109350000Y-115880000D01*
X108230000Y-116480000D02*
X110470000Y-116480000D01*
X108230000Y-116600000D02*
X110470000Y-116600000D01*
X108230000Y-116720000D02*
X110470000Y-116720000D01*
X109350000Y-120770000D02*
X109350000Y-120120000D01*
X108230000Y-115880000D02*
X110470000Y-115880000D01*
X110470000Y-120120000D01*
X108230000Y-120120000D01*
X108230000Y-115880000D01*
%TO.C,D6*%
X116450000Y-115230000D02*
X116450000Y-115880000D01*
X115330000Y-116480000D02*
X117570000Y-116480000D01*
X115330000Y-116600000D02*
X117570000Y-116600000D01*
X115330000Y-116720000D02*
X117570000Y-116720000D01*
X116450000Y-120770000D02*
X116450000Y-120120000D01*
X115330000Y-115880000D02*
X117570000Y-115880000D01*
X117570000Y-120120000D01*
X115330000Y-120120000D01*
X115330000Y-115880000D01*
%TO.C,D7*%
X120000000Y-115230000D02*
X120000000Y-115880000D01*
X118880000Y-116480000D02*
X121120000Y-116480000D01*
X118880000Y-116600000D02*
X121120000Y-116600000D01*
X118880000Y-116720000D02*
X121120000Y-116720000D01*
X120000000Y-120770000D02*
X120000000Y-120120000D01*
X118880000Y-115880000D02*
X121120000Y-115880000D01*
X121120000Y-120120000D01*
X118880000Y-120120000D01*
X118880000Y-115880000D01*
%TO.C,D1*%
X98700000Y-115230000D02*
X98700000Y-115880000D01*
X97580000Y-116480000D02*
X99820000Y-116480000D01*
X97580000Y-116600000D02*
X99820000Y-116600000D01*
X97580000Y-116720000D02*
X99820000Y-116720000D01*
X98700000Y-120770000D02*
X98700000Y-120120000D01*
X97580000Y-115880000D02*
X99820000Y-115880000D01*
X99820000Y-120120000D01*
X97580000Y-120120000D01*
X97580000Y-115880000D01*
%TO.C,D11*%
X134200000Y-115230000D02*
X134200000Y-115880000D01*
X133080000Y-116480000D02*
X135320000Y-116480000D01*
X133080000Y-116600000D02*
X135320000Y-116600000D01*
X133080000Y-116720000D02*
X135320000Y-116720000D01*
X134200000Y-120770000D02*
X134200000Y-120120000D01*
X133080000Y-115880000D02*
X135320000Y-115880000D01*
X135320000Y-120120000D01*
X133080000Y-120120000D01*
X133080000Y-115880000D01*
%TO.C,D10*%
X130650000Y-115230000D02*
X130650000Y-115880000D01*
X129530000Y-116480000D02*
X131770000Y-116480000D01*
X129530000Y-116600000D02*
X131770000Y-116600000D01*
X129530000Y-116720000D02*
X131770000Y-116720000D01*
X130650000Y-120770000D02*
X130650000Y-120120000D01*
X129530000Y-115880000D02*
X131770000Y-115880000D01*
X131770000Y-120120000D01*
X129530000Y-120120000D01*
X129530000Y-115880000D01*
%TO.C,D12*%
X136630000Y-115880000D02*
X138870000Y-115880000D01*
X138870000Y-120120000D01*
X136630000Y-120120000D01*
X136630000Y-115880000D01*
X137750000Y-120770000D02*
X137750000Y-120120000D01*
X136630000Y-116720000D02*
X138870000Y-116720000D01*
X136630000Y-116600000D02*
X138870000Y-116600000D01*
X136630000Y-116480000D02*
X138870000Y-116480000D01*
X137750000Y-115230000D02*
X137750000Y-115880000D01*
%TO.C,U1*%
X106952969Y-60300000D02*
X129750000Y-60300000D01*
X130350000Y-62300000D02*
X129750000Y-60300000D01*
X130350000Y-62300000D02*
X136147031Y-62300000D01*
X137297030Y-63450000D02*
X137297030Y-84850000D01*
X102700000Y-81900000D02*
X102700000Y-64450000D01*
X136147031Y-86000000D02*
X106847031Y-86000000D01*
X102695754Y-64450000D02*
G75*
G02*
X106950000Y-60300001I4151276J0D01*
G01*
X136147030Y-62297030D02*
G75*
G02*
X137300000Y-63450000I0J-1152970D01*
G01*
X106847031Y-85997000D02*
G75*
G02*
X102700000Y-81850000I-31J4147000D01*
G01*
X137297030Y-84850000D02*
G75*
G02*
X136147031Y-86000000I-1150000J0D01*
G01*
X109965000Y-59160000D02*
X111235000Y-59160000D01*
X110600000Y-59795000D01*
X109965000Y-59160000D01*
G36*
X110600000Y-59795000D02*
G01*
X109965000Y-59160000D01*
X111235000Y-59160000D01*
X110600000Y-59795000D01*
G37*
%TO.C,D5*%
X112900000Y-115230000D02*
X112900000Y-115880000D01*
X111780000Y-116480000D02*
X114020000Y-116480000D01*
X111780000Y-116600000D02*
X114020000Y-116600000D01*
X111780000Y-116720000D02*
X114020000Y-116720000D01*
X112900000Y-120770000D02*
X112900000Y-120120000D01*
X111780000Y-115880000D02*
X114020000Y-115880000D01*
X114020000Y-120120000D01*
X111780000Y-120120000D01*
X111780000Y-115880000D01*
%TO.C,D8*%
X123550000Y-115230000D02*
X123550000Y-115880000D01*
X122430000Y-116480000D02*
X124670000Y-116480000D01*
X122430000Y-116600000D02*
X124670000Y-116600000D01*
X122430000Y-116720000D02*
X124670000Y-116720000D01*
X123550000Y-120770000D02*
X123550000Y-120120000D01*
X122430000Y-115880000D02*
X124670000Y-115880000D01*
X124670000Y-120120000D01*
X122430000Y-120120000D01*
X122430000Y-115880000D01*
%TD*%
M02*
