%TF.GenerationSoftware,KiCad,Pcbnew,10.0.4*%
%TF.CreationDate,2026-07-08T15:11:50+01:00*%
%TF.ProjectId,Blind_Clock,426c696e-645f-4436-9c6f-636b2e6b6963,rev?*%
%TF.SameCoordinates,Original*%
%TF.FileFunction,Copper,L4,Bot*%
%TF.FilePolarity,Positive*%
%FSLAX46Y46*%
G04 Gerber Fmt 4.6, Leading zero omitted, Abs format (unit mm)*
G04 Created by KiCad (PCBNEW 10.0.4) date 2026-07-08 15:11:50*
%MOMM*%
%LPD*%
G01*
G04 APERTURE LIST*
G04 Aperture macros list*
%AMRoundRect*
0 Rectangle with rounded corners*
0 $1 Rounding radius*
0 $2 $3 $4 $5 $6 $7 $8 $9 X,Y pos of 4 corners*
0 Add a 4 corners polygon primitive as box body*
4,1,4,$2,$3,$4,$5,$6,$7,$8,$9,$2,$3,0*
0 Add four circle primitives for the rounded corners*
1,1,$1+$1,$2,$3*
1,1,$1+$1,$4,$5*
1,1,$1+$1,$6,$7*
1,1,$1+$1,$8,$9*
0 Add four rect primitives between the rounded corners*
20,1,$1+$1,$2,$3,$4,$5,0*
20,1,$1+$1,$4,$5,$6,$7,0*
20,1,$1+$1,$6,$7,$8,$9,0*
20,1,$1+$1,$8,$9,$2,$3,0*%
G04 Aperture macros list end*
%TA.AperFunction,ComponentPad*%
%ADD10C,1.600000*%
%TD*%
%TA.AperFunction,ComponentPad*%
%ADD11R,1.600000X1.600000*%
%TD*%
%TA.AperFunction,ComponentPad*%
%ADD12RoundRect,0.250000X-0.550000X0.550000X-0.550000X-0.550000X0.550000X-0.550000X0.550000X0.550000X0*%
%TD*%
%TA.AperFunction,ComponentPad*%
%ADD13R,2.000000X2.000000*%
%TD*%
%TA.AperFunction,ComponentPad*%
%ADD14O,1.600000X2.000000*%
%TD*%
%TA.AperFunction,ComponentPad*%
%ADD15C,2.200000*%
%TD*%
%TA.AperFunction,ComponentPad*%
%ADD16R,1.700000X1.700000*%
%TD*%
%TA.AperFunction,ComponentPad*%
%ADD17C,1.700000*%
%TD*%
%TA.AperFunction,Conductor*%
%ADD18C,0.200000*%
%TD*%
G04 APERTURE END LIST*
D10*
%TO.P,BZ1,2,-_2*%
%TO.N,Buzz*%
X114400000Y-132000000D03*
D11*
%TO.P,BZ1,1,+_1*%
%TO.N,3.3v*%
X122000000Y-132000000D03*
%TD*%
D12*
%TO.P,D3,1,K_1*%
%TO.N,Row 0*%
X105800000Y-114190000D03*
D10*
%TO.P,D3,2,A_2*%
%TO.N,Net-(D3-A)*%
X105800000Y-121810000D03*
%TD*%
D12*
%TO.P,D2,1,K_1*%
%TO.N,Row 0*%
X102250000Y-114190000D03*
D10*
%TO.P,D2,2,A_2*%
%TO.N,Net-(D2-A)*%
X102250000Y-121810000D03*
%TD*%
D12*
%TO.P,D9,1,K_1*%
%TO.N,Row 2*%
X127100000Y-114190000D03*
D10*
%TO.P,D9,2,A_2*%
%TO.N,Net-(D9-A)*%
X127100000Y-121810000D03*
%TD*%
D12*
%TO.P,D4,1,K_1*%
%TO.N,Row 1*%
X109350000Y-114190000D03*
D10*
%TO.P,D4,2,A_2*%
%TO.N,Net-(D4-A)*%
X109350000Y-121810000D03*
%TD*%
D12*
%TO.P,D6,1,K_1*%
%TO.N,Row 1*%
X116450000Y-114190000D03*
D10*
%TO.P,D6,2,A_2*%
%TO.N,Net-(D6-A)*%
X116450000Y-121810000D03*
%TD*%
D12*
%TO.P,D7,1,K_1*%
%TO.N,Row 2*%
X120000000Y-114190000D03*
D10*
%TO.P,D7,2,A_2*%
%TO.N,Net-(D7-A)*%
X120000000Y-121810000D03*
%TD*%
D12*
%TO.P,D1,1,K_1*%
%TO.N,Row 0*%
X98700000Y-114190000D03*
D10*
%TO.P,D1,2,A_2*%
%TO.N,Net-(D1-A)*%
X98700000Y-121810000D03*
%TD*%
D12*
%TO.P,D11,1,K_1*%
%TO.N,Row 3*%
X134200000Y-114190000D03*
D10*
%TO.P,D11,2,A_2*%
%TO.N,Net-(D11-A)*%
X134200000Y-121810000D03*
%TD*%
D12*
%TO.P,D10,1,K_1*%
%TO.N,Row 3*%
X130650000Y-114190000D03*
D10*
%TO.P,D10,2,A_2*%
%TO.N,Net-(D10-A)*%
X130650000Y-121810000D03*
%TD*%
%TO.P,D12,2,A_2*%
%TO.N,Net-(D12-A)*%
X137750000Y-121810000D03*
D12*
%TO.P,D12,1,K_1*%
%TO.N,Row 3*%
X137750000Y-114190000D03*
%TD*%
D13*
%TO.P,U1,1,EN_1*%
%TO.N,unconnected-(U1-EN-Pad1)*%
X110600000Y-61700000D03*
D14*
%TO.P,U1,2,D3_2*%
%TO.N,Row 0*%
X113140000Y-61700000D03*
%TO.P,U1,3,D2_3*%
%TO.N,Col 2*%
X115680000Y-61700000D03*
%TO.P,U1,4,D1_4*%
%TO.N,Col 1*%
X118220000Y-61700000D03*
%TO.P,U1,5,D0_5*%
%TO.N,Col 0*%
X120760000Y-61700000D03*
%TO.P,U1,6,D4_6*%
%TO.N,Row 1*%
X123300000Y-61700000D03*
%TO.P,U1,7,D5_7*%
%TO.N,Row 2*%
X125840000Y-61700000D03*
%TO.P,U1,8,3V3_8*%
%TO.N,3.3v*%
X128380000Y-61700000D03*
%TO.P,U1,9,VBus_9*%
%TO.N,unconnected-(U1-VBus-Pad9)*%
X128380000Y-84560000D03*
%TO.P,U1,10,GND_10*%
%TO.N,GND*%
X125840000Y-84560000D03*
%TO.P,U1,11,D6_11*%
%TO.N,Row 3*%
X123300000Y-84560000D03*
%TO.P,U1,12,D7_12*%
%TO.N,Buzz*%
X120760000Y-84560000D03*
%TO.P,U1,13,D8_13*%
%TO.N,RST*%
X118220000Y-84560000D03*
%TO.P,U1,14,D10_14*%
%TO.N,DC*%
X115680000Y-84560000D03*
%TO.P,U1,15,RX_15*%
%TO.N,RDA*%
X113140000Y-84560000D03*
%TO.P,U1,16,TX_16*%
%TO.N,SCL*%
X110600000Y-84560000D03*
%TD*%
D15*
%TO.P,SW12,1,1_1*%
%TO.N,Col 2*%
X90260295Y-46870591D03*
%TO.P,SW12,2,2_2*%
%TO.N,Net-(D12-A)*%
X86031034Y-52245296D03*
%TD*%
%TO.P,SW11,1,1_1*%
%TO.N,Col 1*%
X68410591Y-66860886D03*
%TO.P,SW11,2,2_2*%
%TO.N,Net-(D11-A)*%
X67435296Y-73630147D03*
%TD*%
%TO.P,SW10,1,1_1*%
%TO.N,Col 0*%
X59920000Y-96540000D03*
%TO.P,SW10,2,2_2*%
%TO.N,Net-(D10-A)*%
X62460001Y-102890000D03*
%TD*%
%TO.P,SW8,1,1_1*%
%TO.N,Col 2*%
X86659705Y-148129409D03*
%TO.P,SW8,2,2_2*%
%TO.N,Net-(D6-A)*%
X93428966Y-149104704D03*
%TD*%
%TO.P,SW7,1,1_1*%
%TO.N,Col 2*%
X115540000Y-157080000D03*
%TO.P,SW7,2,2_2*%
%TO.N,Net-(D3-A)*%
X121889999Y-154540000D03*
%TD*%
%TO.P,SW4,1,1_1*%
%TO.N,Col 1*%
X174540001Y-102350000D03*
%TO.P,SW4,2,2_2*%
%TO.N,Net-(D2-A)*%
X172000000Y-96000000D03*
%TD*%
%TO.P,SW3,1,1_1*%
%TO.N,Col 0*%
X168209409Y-73059114D03*
%TO.P,SW3,2,2_2*%
%TO.N,Net-(D7-A)*%
X162834704Y-68829853D03*
%TD*%
%TO.P,SW2,1,1_1*%
%TO.N,Col 0*%
X148739705Y-48870591D03*
%TO.P,SW2,2,2_2*%
%TO.N,Net-(D4-A)*%
X141970444Y-47895296D03*
%TD*%
%TO.P,SW1,1,1_1*%
%TO.N,Col 0*%
X119620000Y-40920000D03*
%TO.P,SW1,2,2_2*%
%TO.N,Net-(D1-A)*%
X113270000Y-43460000D03*
%TD*%
D16*
%TO.P,J1,GND,Pin_1_GND*%
%TO.N,GND*%
X85000000Y-108620000D03*
D17*
%TO.P,J1,VCC,Pin_2_VCC*%
%TO.N,3.3v*%
X85000000Y-106080000D03*
%TO.P,J1,SCL,Pin_3_SCL*%
%TO.N,SCL*%
X85000000Y-103540000D03*
%TO.P,J1,RDA,Pin_4_RDA*%
%TO.N,RDA*%
X85000000Y-101000000D03*
%TO.P,J1,RST,Pin_5_RST*%
%TO.N,RST*%
X85000000Y-98460000D03*
%TO.P,J1,DC,Pin_6_DC*%
%TO.N,DC*%
X85000000Y-95920000D03*
%TO.P,J1,CS,Pin_7_CS*%
%TO.N,GND*%
X85000000Y-93380000D03*
%TO.P,J1,BL,Pin_8_BL*%
%TO.N,3.3v*%
X85000000Y-90840000D03*
%TD*%
D15*
%TO.P,SW9,1,1_1*%
%TO.N,Col 2*%
X65870591Y-126739705D03*
%TO.P,SW9,2,2_2*%
%TO.N,Net-(D9-A)*%
X71245296Y-130968966D03*
%TD*%
%TO.P,SW5,1,1_1*%
%TO.N,Col 1*%
X166024705Y-130769262D03*
%TO.P,SW5,2,2_2*%
%TO.N,Net-(D5-A)*%
X167000000Y-124000000D03*
%TD*%
%TO.P,SW6,1,1_1*%
%TO.N,Col 1*%
X145739705Y-151129409D03*
%TO.P,SW6,2,2_2*%
%TO.N,Net-(D8-A)*%
X149968966Y-145754705D03*
%TD*%
D12*
%TO.P,D5,1,K_1*%
%TO.N,Row 1*%
X112900000Y-114190000D03*
D10*
%TO.P,D5,2,A_2*%
%TO.N,Net-(D5-A)*%
X112900000Y-121810000D03*
%TD*%
D12*
%TO.P,D8,1,K_1*%
%TO.N,Row 2*%
X123550000Y-114190000D03*
D10*
%TO.P,D8,2,A_2*%
%TO.N,Net-(D8-A)*%
X123550000Y-121810000D03*
%TD*%
%TO.N,Row 2*%
D18*
X123550000Y-114190000D02*
X120000000Y-114190000D01*
%TO.N,Buzz*%
X107400000Y-114754365D02*
X107400000Y-98120000D01*
X120760000Y-84760000D02*
X120760000Y-84560000D01*
X123100000Y-133100000D02*
X123100000Y-130454365D01*
X107400000Y-98120000D02*
X120760000Y-84760000D01*
X115500000Y-133100000D02*
X123100000Y-133100000D01*
X114400000Y-132000000D02*
X115500000Y-133100000D01*
X123100000Y-130454365D02*
X107400000Y-114754365D01*
%TO.N,3.3v*%
X118000000Y-132000000D02*
X117984365Y-132000000D01*
X107000000Y-113000000D02*
X107000000Y-117904365D01*
X107000000Y-117904365D02*
X118000000Y-128904365D01*
X118000000Y-128904365D02*
X118000000Y-132000000D01*
X99394744Y-113000000D02*
X107000000Y-113000000D01*
X92474744Y-106080000D02*
X99394744Y-113000000D01*
%TO.N,Row 0*%
X84523654Y-99850000D02*
X85236346Y-99850000D01*
X113140000Y-71946346D02*
X113140000Y-61700000D01*
X83450000Y-100923654D02*
X84523654Y-99850000D01*
X83450000Y-109370000D02*
X83450000Y-100923654D01*
X105800000Y-114190000D02*
X88270000Y-114190000D01*
X88270000Y-114190000D02*
X83450000Y-109370000D01*
X85236346Y-99850000D02*
X113140000Y-71946346D01*
X98700000Y-114190000D02*
X105800000Y-114190000D01*
X98890000Y-114000000D02*
X98700000Y-114190000D01*
X98890000Y-114000000D02*
X99000000Y-114000000D01*
%TO.N,Row 1*%
X125000000Y-60000000D02*
X123300000Y-61700000D01*
X138850000Y-70414365D02*
X128435635Y-60000000D01*
X138850000Y-114974744D02*
X138850000Y-70414365D01*
X138134744Y-115690000D02*
X138850000Y-114974744D01*
X116450000Y-114190000D02*
X117950000Y-115690000D01*
X117950000Y-115690000D02*
X138134744Y-115690000D01*
X128435635Y-60000000D02*
X125000000Y-60000000D01*
X109350000Y-114190000D02*
X116450000Y-114190000D01*
%TO.N,Row 3*%
X124740000Y-83120000D02*
X123300000Y-84560000D01*
X124740000Y-61044365D02*
X124740000Y-83120000D01*
X126940000Y-61044365D02*
X126295635Y-60400000D01*
X126295635Y-60400000D02*
X125384365Y-60400000D01*
X126940000Y-62234314D02*
X126940000Y-61044365D01*
X130650000Y-114190000D02*
X130650000Y-65944314D01*
X130650000Y-65944314D02*
X126940000Y-62234314D01*
X125384365Y-60400000D02*
X124740000Y-61044365D01*
X137750000Y-114190000D02*
X130650000Y-114190000D01*
%TO.N,Row 2*%
X127100000Y-114190000D02*
X123550000Y-114190000D01*
X127100000Y-62960000D02*
X127100000Y-114190000D01*
X125840000Y-61700000D02*
X127100000Y-62960000D01*
%TO.N,RDA*%
X110144365Y-83260000D02*
X111840000Y-83260000D01*
X92404365Y-101000000D02*
X110144365Y-83260000D01*
X111840000Y-83260000D02*
X113140000Y-84560000D01*
X85000000Y-101000000D02*
X92404365Y-101000000D01*
%TO.N,SCL*%
X110600000Y-93709949D02*
X110600000Y-84560000D01*
X100769949Y-103540000D02*
X110600000Y-93709949D01*
X85000000Y-103540000D02*
X100769949Y-103540000D01*
%TO.N,GND*%
X124400000Y-86000000D02*
X125840000Y-84560000D01*
X122765686Y-86000000D02*
X124400000Y-86000000D01*
X121860000Y-85094314D02*
X122765686Y-86000000D01*
X121860000Y-83904365D02*
X121860000Y-85094314D01*
X121215635Y-83260000D02*
X121860000Y-83904365D01*
X120304365Y-83260000D02*
X121215635Y-83260000D01*
X119660000Y-83904365D02*
X120304365Y-83260000D01*
X119660000Y-85215635D02*
X119660000Y-83904365D01*
X100185635Y-104690000D02*
X119660000Y-85215635D01*
X83850000Y-105603654D02*
X84763654Y-104690000D01*
X83850000Y-107470000D02*
X83850000Y-105603654D01*
X84763654Y-104690000D02*
X100185635Y-104690000D01*
X85000000Y-108620000D02*
X83850000Y-107470000D01*
%TO.N,Buzz*%
X122000000Y-85800000D02*
X120760000Y-84560000D01*
%TO.N,3.3v*%
X92474744Y-106080000D02*
X85000000Y-106080000D01*
X122000000Y-132000000D02*
X118000000Y-132000000D01*
%TO.N,RST*%
X118000000Y-85000000D02*
X118000000Y-84780000D01*
X118220000Y-84560000D02*
X118000000Y-84780000D01*
%TO.N,Net-(D7-A)*%
X120000000Y-121810000D02*
X120000000Y-122000000D01*
%TO.N,Net-(D11-A)*%
X134200000Y-121810000D02*
X134200000Y-122000000D01*
%TO.N,Net-(D2-A)*%
X102190000Y-121810000D02*
X102000000Y-122000000D01*
X102250000Y-121810000D02*
X102190000Y-121810000D01*
%TO.N,Net-(D1-A)*%
X98810000Y-121810000D02*
X99000000Y-122000000D01*
X98700000Y-121810000D02*
X98810000Y-121810000D01*
%TO.N,Net-(D12-A)*%
X137810000Y-121810000D02*
X138000000Y-122000000D01*
X137810000Y-121810000D02*
X137750000Y-121810000D01*
%TD*%
M02*
